<svg width="396" height="241" viewBox="0 0 396 241" fill="none" xmlns="http://www.w3.org/2000/svg">
<g clip-path="url(#clip0_2340_3895)">
<path d="M258.24 127.949L210.236 88.631L202.252 94.6682L179.312 111.687L150.962 132.574C157.149 135.404 165.536 140.406 164.899 146.835C164.395 151.928 160.599 154.574 155.334 155.374C158.998 159.332 158.643 165.202 154.62 168.654C153.116 169.945 151.374 170.664 149.257 171.251C152.172 174.541 152.255 179.192 149.686 182.704C147.946 185.083 145.461 186.486 142.543 187.493C144.988 190.559 144.899 194.468 142.488 197.358C138.557 202.07 131.322 202.961 125.178 201.621C123.462 209.623 124.591 216.434 131.218 221.505C134.041 223.665 137.131 225.301 140.461 226.621L150.357 230.542C152.411 231.356 154.531 232.431 155.861 234.229C157.192 236.027 156.06 238.739 154.035 239.608C152.01 240.476 149.957 240.954 147.612 240.985C128.698 241.224 109.974 238.572 91.9613 232.883C86.0943 231.031 72.9664 226.38 77.1283 221.039C77.8858 220.069 78.9918 219.805 80.2879 219.649L88.4878 218.669L97.6007 216.885C103.24 215.781 111.282 209.666 112.143 203.171C104.487 205.029 97.7303 207.946 90.7545 210.874L82.8426 214.193C77.7562 215.936 72.7101 216.845 67.4682 218.174C57.9635 220.581 49.3777 224.896 40.9848 229.909C40.4203 230.245 39.1789 230.033 38.672 229.733C38.0211 228.315 38.8045 227.234 39.9998 226.616L51.9324 220.429C57.2752 217.659 62.8858 216.091 68.7556 214.789L76.0511 213.169C80.9561 212.082 85.3426 210.089 89.9307 208.11L96.8058 205.147C102.128 202.855 107.552 201.256 113.22 200.094L116.31 187.896C113.522 186.938 110.875 186.181 108.001 186.029C107.097 185.98 106.434 185.687 106.123 184.916C104.807 181.657 112.722 183.288 117.007 184.976L119.689 173.975L116.431 173.561C115.907 173.494 115.248 172.62 115.204 172.137C115.155 171.576 115.922 170.523 116.475 170.572L120.544 170.943L122.005 164.788L115.988 168.024C112.926 169.669 110.533 172.41 108.937 175.611C102.002 189.524 89.1185 199.317 73.6836 201.923C72.5373 202.116 71.27 201.699 71.1318 200.522C71.2182 200.042 71.9209 199.136 72.3443 198.814C80.7977 197.347 88.6145 193.87 95.0287 188.192C99.7925 183.975 103.223 179.037 106.267 173.546C108.275 169.925 110.916 166.824 114.568 164.883L130.539 156.389C133.396 154.868 135.901 153.033 138.39 151.008C141.152 148.762 143.468 146.147 144.925 142.897C146.515 139.353 145.809 135.401 142.961 135.013C141.578 134.826 139.631 134.378 138.206 134.789C128.975 137.458 120.317 140.967 111.57 144.902C106.238 147.3 101.06 149.36 95.4693 150.968C92.2378 151.894 86.7193 153.053 86.7539 151.048C86.7741 149.739 88.1393 149.259 89.2568 149.075C93.1738 148.425 96.8461 147.456 100.544 145.937L125.369 135.747L132.825 133.313C132.756 129.381 131.276 125.893 128.983 122.85L120.305 123.292C106.754 124.961 93.5281 127.546 80.4031 131.314C75.1755 132.816 70.6824 135.603 67.0102 139.526L48.3927 159.412C42.9088 165.271 36.7509 169.951 29.7348 173.868C20.8494 178.83 11.6904 182.888 2.09652 186.029C1.39375 186.259 0.195595 185.557 0.0314246 185.028C-0.132746 184.499 0.27336 183.256 0.976126 182.997C15.3079 177.722 33.2054 170.264 43.744 159.082L63.5338 138.079C69.0148 132.261 74.8616 128.691 82.7101 126.974C97.2896 123.428 111.993 119.783 127.451 119.574L99.8328 67.2691L94.7435 57.5935C92.7332 53.771 91.2355 48.7807 95.1093 48.0501C104.934 46.2036 119.709 47.9868 129.899 50.1181L181.763 60.9644C190.847 62.8656 199.378 65.8051 208.157 68.8971L226.622 64.065C252.382 58.2435 278.376 54.4785 304.68 52.3587L316.046 52.1689C318.261 52.1315 320.467 52.6866 322.469 53.5006C325.046 54.5504 324.349 58.2636 323.174 61.3671C321.671 65.3334 319.994 68.9834 317.754 72.6563L287.241 122.651L299.902 123.853L333.212 128.723C336.924 129.266 340.789 130.564 343.295 133.296L353.491 144.427L370.452 164.538C374.678 169.548 379.943 173.302 385.717 176.279L394.093 180.596C394.787 180.952 395.801 181.648 395.985 182.439C396.098 182.923 395.231 183.788 394.764 183.898C394.263 184.016 393.393 183.886 392.803 183.622C383.439 179.411 375.19 175.099 368.399 167.141L344.586 139.233C341.132 135.186 336.368 132.519 331.049 131.766L297.564 127.029L285.092 126.151C283.485 128.493 282.765 131.225 282.762 133.981L307.281 143.124C313.865 145.58 320.314 147.427 327.178 148.764C327.558 149.15 328.105 149.97 328.171 150.553C328.232 151.071 327.062 151.77 326.509 151.831C319.807 150.51 313.583 148.678 307.123 146.455L283.531 137.602L273.687 134.961C272.183 134.559 270.475 135.246 269.444 136.27C268.413 137.294 268.091 139.123 268.482 140.769C270.202 148.005 279.764 154.914 286.541 158.101L302.195 165.467C305.539 167.04 307.863 169.781 309.637 172.959C315.945 184.272 323.474 193.329 336.368 197.088L343.552 198.828C343.926 198.917 344.557 199.369 344.686 199.657C344.92 200.177 344.462 202.058 343.114 201.891C331.495 200.448 321.17 194.747 313.949 185.609C310.965 181.833 308.583 177.924 306.247 173.782C304.528 170.733 301.878 168.797 298.788 167.411L288.888 162.973L290.095 169.471C293.695 169.741 298.646 170 297.84 172.338C297.696 172.755 296.967 173.537 296.486 173.454L291.699 172.634C291.446 172.591 290.689 172.62 290.717 172.784L290.864 173.581L292.8 184.047C296.207 183.17 302.569 181.89 303.111 183.691C303.249 184.148 302.909 185.126 302.523 185.724C299.464 185.764 296.455 186.104 293.425 187.159L294.925 195.5C299.251 196.381 303.312 197.589 307.443 199.28L321.219 206.203C325.133 208.17 328.77 210.405 333.079 211.314L346.702 214.19C353.249 216.091 359.2 219.241 364.799 223.026L371.334 227.444C371.596 228.022 371.731 229.394 371.368 229.846C370.694 230.378 369.516 229.854 368.785 229.411L353.554 220.196C350.464 218.326 346.999 217.535 343.488 216.756L331.694 214.13C328.235 213.359 325.208 211.605 322.062 209.971L309.574 203.491C305.726 201.495 295.363 198.147 295.533 198.889L295.671 199.507L296.829 204.112C298.716 211.61 307.543 215.047 314.836 216.578L329.845 219.73C331.213 220.018 332.431 222.126 332.169 223.403C331.44 226.943 324.709 229.794 320.758 231.12C301.665 237.531 281.521 240.065 261.4 238.727C258.782 238.552 256.446 237.706 254.395 236.472C252.569 235.374 252.273 233.136 253.626 231.517C254.778 230.139 256.25 228.871 257.938 228.094L267.97 223.472C275.107 220.184 284.752 215.559 284.087 206.485L283.681 200.948C283.672 200.813 283.612 200.321 283.511 200.327L282.817 200.361C276.864 200.658 271.241 200.082 267.229 195.486C264.761 192.446 264.77 188.413 267.29 185.416C267.313 185.255 267.359 184.994 267.258 184.968L266.642 184.801C264.896 184.323 263.105 182.98 261.838 181.648C258.163 177.786 258.088 172.027 262.195 168.168C258.134 166.977 254.557 164.132 254.173 159.706C253.744 154.727 257.313 151.1 261.766 148.557C261.976 148.557 261.711 148.319 261.429 148.215C257.356 148.534 253.713 147.22 251.08 144.37C248.448 141.519 248.125 137.728 250.222 134.424C252.114 131.444 255.095 129.548 258.232 127.938L258.24 127.949ZM200.884 76.8297C206.408 77.3015 211.527 77.2784 217.149 76.5479C215.098 75.1558 213.128 73.942 210.746 73.0993C200.553 69.4896 190.421 66.1129 179.772 63.8292L141.405 55.6031C132.244 53.6386 123.275 52.3271 114.003 51.0903C108.721 50.3856 103.707 50.2907 98.4302 50.4086C97.3559 50.4316 96.5062 50.9292 95.9964 51.9877C98.94 53.7825 101.725 55.2234 104.951 56.3768C113.203 59.325 121.305 61.9826 129.827 64.2347C141.066 67.203 152.126 69.5557 163.566 71.6899C176.02 74.0139 188.278 75.7483 200.884 76.8269V76.8297ZM302.463 63.5444L316.63 59.1438L320.781 57.0412C320.671 56.3193 319.738 55.56 318.937 55.5744L301.357 55.8562L273.963 59.0517C259.228 60.7717 244.885 63.3143 230.415 66.4149L213.422 70.6545L221.106 75.5585C248.623 74.3332 275.631 70.3036 302.463 63.5444ZM185.513 103.075L211.287 83.586L215.17 80.0857C197.399 80.4509 180.599 77.8163 163.396 74.7358C148.145 71.9459 133.26 68.5922 118.43 64.1743C111.299 62.1034 104.769 59.6126 97.6352 56.6357L115.752 90.374L134.493 125.924C135.582 127.987 135.536 130.48 135.89 132.597C139.502 131.682 142.644 131.124 146.08 133.011C148.18 130.756 150.467 128.763 153.093 126.836L185.507 103.075H185.513ZM268.281 133.319C270.115 131.99 272.005 131.636 274.03 131.74L279.542 133.144C279.801 129.614 281.098 126.324 283.016 123.258L293.312 106.794L309.657 80.0598L319.686 61.3096L306.486 65.6958C295.28 68.6612 284.153 71.1003 272.647 73.0072C255.444 75.9841 238.301 77.8077 220.847 78.3542C218.471 81.3943 215.867 83.9024 212.811 86.4479L246.959 114.531L261.273 126.416L268.281 133.319ZM266.682 144.815C264.911 141.482 264.885 138.304 266.204 135.35L261.028 130.178L254.035 134.564C252.258 135.678 251.869 138.042 252.287 140.067C253.298 144.962 261.495 146.15 266.682 144.815ZM156.529 152.009C160.049 151.416 162.134 148.468 161.613 145.186C159.98 140.239 153.033 136.748 148.197 134.726C149.176 137.979 149.09 140.777 148.024 143.653C147.051 145.963 145.737 147.916 143.995 150.016C147.964 151.644 152.229 152.734 156.529 152.012V152.009ZM277.057 164.152L275.032 154.638C273.001 152.814 271 151.065 269.194 148.779C263.707 150.602 256.296 154.129 257.379 160.005C257.67 161.584 258.862 163.223 260.622 164.19C265.222 166.715 271.864 165.671 277.054 164.152H277.057ZM151.613 166.942C154.147 165.478 155.259 162.783 154.473 160.002C153.934 158.092 152.566 156.427 151.045 155.236C147.725 154.744 144.715 153.723 141.725 152.509L135.757 156.996L133.413 166.123C139.136 167.92 146.357 169.982 151.613 166.942ZM319.969 227.896C323.546 226.702 326.469 225.307 329.208 222.971C326.043 221.904 323.295 221.435 320.277 220.964C311.164 219.543 299.372 216.448 294.974 208.029C293.814 205.806 293.361 203.39 292.889 200.856L285.504 161.216L278.9 157.554L283.502 180.4C285.107 188.365 286.371 196.076 287.106 204.138C287.947 213.376 283.701 219.324 275.513 223.236L262.1 229.644C259.833 230.726 257.926 231.983 255.755 233.593C258.327 234.842 260.755 235.561 263.589 235.679C282.719 236.478 301.665 234.016 319.977 227.898L319.969 227.896ZM144.873 237.85C147.944 237.882 150.357 237.252 153.272 236.7C152.676 235.27 151.645 234.344 150.248 233.809L141.313 230.386C134.502 227.778 126.596 223.875 123.332 217.291C121.29 213.172 120.91 208.584 121.601 203.968C123.039 194.353 125.305 185.12 127.658 175.672L132.065 159.407L125.628 162.708L117.068 197.813L113.612 208.162C112.964 210.1 111.953 211.907 110.386 213.299C105.207 217.903 98.7758 220.627 91.872 221.505L83.7873 222.126C82.0909 222.255 80.5615 222.543 79.3345 223.647C83.3754 226.227 87.2867 227.947 91.7424 229.377C108.888 234.876 126.627 237.669 144.87 237.856L144.873 237.85ZM280.617 181.997L277.78 167.463L275.665 167.687C272.61 168.418 269.793 168.803 266.619 168.726L264.464 170.25C261.748 172.511 261.452 176.451 263.747 179.143C267.486 183.521 275.222 183.875 280.617 181.999V181.997ZM146.705 181.585C148.093 180.032 148.727 177.823 148.257 175.913C147.926 174.564 146.771 172.16 145.04 171.838L136.524 170.264C135.216 170.023 133.842 169.836 132.437 169.764L128.865 183.875C134.582 186.112 142.635 186.135 146.702 181.582L146.705 181.585ZM283.171 197.22L281.213 185.137C277.696 185.992 274.462 186.452 271.028 185.931C269.269 187.156 268.042 189.032 268.445 191.166C269.407 196.26 277.708 198.109 283.171 197.22ZM141.391 191.856C140.893 190.395 140.101 189.204 138.972 188.186C135.274 188.845 131.976 188.088 128.194 186.857L125.639 198.624C131.97 200.097 141.063 198.604 141.391 191.853V191.856Z" fill="#0F2A15"/>
<path d="M333.1 35.1989L332.44 30.384C331.697 24.9738 327.774 20.4984 322.077 20.9989C321.694 20.5617 321.156 19.9088 320.957 19.3192C320.744 18.6864 322.046 17.8465 322.685 17.766C328.143 17.0728 331.838 12.1458 332.236 6.89093L332.662 1.24775C332.699 0.753038 333.569 -0.0177939 334.044 0.00233972C334.655 0.0282259 335.122 0.773172 335.24 1.44046L336.663 9.49968C337.288 13.0432 340.119 15.744 343.661 16.5752L346.285 17.1907C346.723 17.2943 347.46 17.7919 347.627 18.2377C347.794 18.6835 347.1 19.5924 346.648 19.8455C341.789 20.1619 338.034 23.1474 336.844 27.9047L335.79 34.8911C335.683 35.5958 335.211 36.2401 334.54 36.3551C334.036 36.4414 333.186 35.8086 333.103 35.2017L333.1 35.1989ZM340.824 18.6605C337.682 17.1045 335.649 14.5446 334.042 11.2427C332.688 14.5245 330.784 17.2051 327.486 19.1926C330.85 20.6365 333.025 23.4063 334.312 26.7168C335.925 23.1503 337.434 20.2539 340.827 18.6605H340.824Z" fill="#0F2A15"/>
<path d="M70.8639 51.565C70.8207 52.0252 69.9105 52.7442 69.4958 52.7069C67.0966 52.5084 69.1156 38.3803 60.0804 37.3621L57.2406 37.0429C56.8892 37.0026 56.2642 36.4964 56.172 36.1829C56.0654 35.8205 56.4888 35.0122 56.8431 34.8569L60.282 33.3469C63.5683 31.903 66.4572 28.9779 66.8575 25.3251L67.7129 17.5161C67.759 17.0847 68.6029 16.3685 69.0234 16.3109C71.6847 15.9543 69.2452 27.3183 75.2504 31.3767C78.4128 33.5137 81.7481 33.0967 81.9468 34.8857C81.9929 35.2941 81.3305 36.0045 80.8869 36.1081L78.0413 36.761C76.653 37.0803 75.0977 37.7562 74.1905 38.9038C72.4796 41.0696 71.5954 43.6927 71.3391 46.4367L70.861 51.5592L70.8639 51.565ZM71.5954 37.9431C72.8685 36.459 74.0897 35.53 75.9733 34.6124C72.5632 33.298 70.5096 30.8129 69.2769 27.3586C67.7965 30.649 65.8869 33.4418 62.5084 35.274C65.9992 36.597 68.0298 39.2835 69.323 42.686L71.5983 37.9431H71.5954Z" fill="#0F2A15"/>
<path d="M72.4135 95.822C72.0276 99.958 73.3697 102.736 72.0304 103.099C70.0057 103.645 70.6278 99.8171 67.9233 96.2132C66.0425 93.7051 62.9809 92.6236 60.1237 93.5325C59.6312 93.1528 59.0811 92.6581 59.0293 92.2986C58.9774 91.9391 59.6312 91.2775 59.997 91.1251C63.8017 89.5345 66.008 85.9364 65.5529 81.7831L65.0229 76.9452C64.9826 76.5713 65.5068 75.8609 65.8265 75.8149C67.8052 75.5416 67.9607 84.2538 73.2171 86.2873C75.8496 87.3055 78.4302 86.339 79.0523 87.4521C79.2424 87.7915 78.8392 88.7723 78.387 88.9018C75.3455 89.7848 72.739 92.3561 72.4164 95.8249L72.4135 95.822ZM70.3196 95.7731C70.9014 92.9343 71.6733 90.7598 73.8651 88.8327C71.2989 88.0216 69.2712 86.6037 67.6641 84.2394C67.1456 87.1904 65.9158 89.408 63.8449 91.407C64.9653 91.6428 66.3248 91.8902 67.114 92.6553L70.3196 95.7731Z" fill="#0F2A15"/>
<path d="M182.276 100.72L161.717 116.792L151.599 123.649C149.341 125.18 146.634 125.965 143.958 126.175C140.905 126.413 138.39 124.898 137.063 122.246L123.701 98.7872L108.889 68.6816C118.445 73.0506 127.714 76.226 137.662 78.6018C151.749 81.7599 165.772 84.0379 180.159 85.3322L195.07 85.9103C195.628 85.9333 196.524 86.5776 196.755 87.0119C197.011 87.4951 196.766 88.9131 196.288 89.3043L182.285 100.717L182.276 100.72Z" fill="#0F2A15"/>
<path d="M257.379 118.383L243.923 107.244C236.999 101.511 230.438 95.779 224.309 89.2155L223.943 86.3737C224.419 86.0602 225.297 85.7582 225.959 85.7697C236.138 85.9193 246.02 85.8359 256.173 84.6768C265.856 83.5694 275.11 81.93 284.615 80.0144L295.758 77.3222L306.011 73.8362C306.778 73.5745 307.449 75.1133 307.316 75.9445L291.708 102.898L279.563 121.815C276.778 126.152 270.844 127.82 266.331 125.114L257.382 118.386L257.379 118.383Z" fill="#0F2A15"/>
</g>
<defs>
<clipPath id="clip0_2340_3895">
<rect width="396" height="241" fill="white"/>
</clipPath>
</defs>
</svg>
