<svg width="190" height="293" viewBox="0 0 190 293" fill="none" xmlns="http://www.w3.org/2000/svg">
<path d="M102.595 116.003C106.016 116.213 109.777 116.448 113.123 117.195C115.045 117.624 116.88 118.512 118.77 118.981C126.469 120.893 131.738 121.875 138.618 126.28C141.906 128.386 144.142 130.776 147.035 133.208C151.553 137.003 154.864 139.154 158.424 144.112C163.126 150.659 167.66 156.97 170.048 164.787C171.767 170.407 173.573 178.126 174.482 183.924C176.838 198.946 171.408 213.732 165.55 227.21C161.99 235.404 156.288 242.426 150.113 248.76C141.893 257.193 127.851 262.135 116.767 265.507C108.23 268.103 101.812 268.126 92.9707 267.054C86.6374 266.285 80.4659 264.919 74.4011 262.994C63.9319 259.67 52.5468 253.802 45.0872 245.611C30.6762 229.794 24.1649 215.256 23.3364 193.568C22.618 174.78 29.6212 155.779 42.741 142.394C47.6245 137.414 53.9157 132.32 59.5727 128.205C67.2846 122.595 74.3267 120.596 83.0969 117.469C84.7604 116.875 84.4076 116.885 86.3235 116.652C88.0322 116.445 89.783 116.103 91.5015 116.009C94.1681 115.864 97.3623 116.31 99.9157 116.016C100.188 115.983 100.288 116 100.459 115.754C100.77 115.315 100.654 110.861 100.641 109.95C100.427 96.2166 100.1 -7.71391 100.641 -21.4344C100.676 -22.371 100.359 -25.2295 101.029 -25.7301C101.56 -26.1274 102.055 -25.4814 102.084 -24.984C102.1 -24.6965 101.922 -24.3671 101.919 -24.0312C101.89 -10.6305 102.21 92.7348 102.417 106.074C102.437 107.327 102.21 115.667 102.589 115.99L102.595 116.003ZM101.582 117.818C100.744 117.908 99.8995 117.637 99.1099 117.627C98.1261 117.614 96.152 117.66 95.2296 117.805C94.5079 117.918 93.1228 119.598 92.6439 120.227C88.6309 125.466 85.7086 132.045 82.0031 137.536C81.6924 138.114 82.2846 138.231 82.7118 138.35C85.016 138.993 87.5371 139.255 89.8833 139.584C91.3041 139.784 99.2846 140.976 99.9999 140.479L101.582 117.818ZM66.1973 133.45C70.2458 134.894 74.4011 136.522 78.6147 137.439C78.9772 137.517 79.618 137.733 79.9384 137.575L92.2264 118.202C92.0063 117.892 91.6665 117.934 91.3364 117.947C85.2296 118.151 82.372 120.25 77.6245 123.638C74.0581 126.183 70.1358 129.352 67.0031 132.401C66.6827 132.714 66.3526 133.014 66.1973 133.45ZM101.929 140.553C105.249 140.566 108.56 140.592 111.87 140.388C114.641 140.22 117.841 139.949 120.582 139.561C120.99 139.503 122.175 139.39 122.288 138.99C122.382 138.657 120.265 133.263 119.951 132.482C119.272 130.786 118.553 129.058 117.751 127.417C116.288 124.426 114.391 121.949 112.592 119.171C110.048 118.564 107.23 118.057 104.605 117.947C104.278 117.934 103.466 117.87 103.298 118.109L101.929 140.55V140.553ZM126.955 122.84C126.789 122.682 123.65 121.839 123.145 121.72C120.482 121.08 117.734 120.825 115.191 119.736C114.848 120.211 116.637 122.278 116.938 122.753C120.133 127.811 122.126 133.189 124.162 138.786C124.55 139.196 125.087 138.715 125.498 138.657C129.67 138.056 133.757 136.981 137.819 135.863C137.906 135.582 137.796 135.379 137.679 135.136C137.035 133.78 132.55 127.663 131.44 126.681C130.078 125.473 128.521 124.891 127.246 123.438C127.1 123.273 127.078 122.953 126.958 122.84H126.955ZM78.9707 120.541C78.6989 120.505 78.4497 120.579 78.194 120.651C72.851 122.139 65.5565 125.776 61.1358 129.122C60.6989 129.452 59.4982 130.14 59.8024 130.708C60.0225 131.122 63.8639 132.947 64.5791 132.559C68.2814 129.168 72.0419 125.728 76.0743 122.731C76.838 122.162 77.9416 121.671 78.6018 121.057C78.7733 120.899 79.0549 120.893 78.9707 120.541ZM143.945 132.666C140.33 129.92 136.78 126.862 132.489 125.221L139.767 134.991C139.88 135.091 139.997 135.062 140.133 135.043C140.34 135.014 142.414 134.077 142.728 133.906C143.09 133.709 144.226 133.153 143.945 132.666ZM45.1358 160.039C46.4141 157.532 47.6083 154.955 48.974 152.494C52.7086 145.772 57.6924 139.862 62.7927 134.197C62.7442 133.903 60.2102 132.811 59.7248 132.569C58.4012 131.897 58.4594 131.206 56.9934 132.255C51.1034 136.474 44.0225 142.898 39.5241 148.55C38.1584 150.265 36.8122 152.132 35.7798 154.031C35.7798 154.596 37.6957 156.043 38.2361 156.437C40.1746 157.852 42.3947 158.837 44.4141 160.123L45.1325 160.042L45.1358 160.039ZM146.035 134.623C145.809 134.494 145.349 134.578 145.094 134.658C144.712 134.778 141.877 136.283 141.492 136.548C141.336 136.655 141.175 136.755 141.078 136.923C143.414 141.18 146.197 145.23 148.524 149.487C149.66 151.56 151.039 154.248 151.922 156.424C152.142 156.967 152.67 159.163 152.903 159.399C153.048 159.551 153.311 159.58 153.511 159.532C154.074 159.393 155.349 158.711 155.971 158.427C158.285 157.364 160.505 156.076 162.738 154.855C163.385 154.357 162.848 153.766 162.534 153.262C160.764 150.391 157.88 146.367 155.77 143.712C153.107 140.359 150.501 138.263 147.126 135.718C146.857 135.518 146.149 134.697 146.035 134.633V134.623ZM78.8089 139.264C73.9999 138.363 69.5209 136.399 64.9448 134.768C64.8089 134.717 64.7086 134.765 64.5889 134.82C64.372 134.917 62.5597 136.816 62.2361 137.165C56.3202 143.505 50.4562 151.919 47.0063 159.89C46.8542 160.242 46.5533 160.688 46.7086 161.046C46.8639 161.405 48.8413 162.229 49.3494 162.458C53.7215 164.441 59.0905 166.24 63.741 167.461C64.2393 167.593 66.618 168.249 66.8542 168.084C67.1584 167.871 68.6892 161.96 68.9966 161.017C71.0808 154.622 73.7507 148.424 77.0063 142.546C77.2555 142.097 78.974 139.494 78.8122 139.267L78.8089 139.264ZM151.388 160.384C151.521 160.181 150.984 158.32 150.841 157.981C150.599 157.406 150.029 156.793 149.728 156.185C148.802 154.315 147.964 152.381 146.964 150.553C144.56 146.166 141.738 141.929 139.278 137.562L125.068 140.727C124.984 140.827 125.045 141.383 125.087 141.564C125.906 144.978 128.026 148.608 128.398 152.3L130.809 166.873L131.398 166.986C138.262 165.42 144.912 163.104 151.385 160.384H151.388ZM98.9966 171.033L99.9189 142.639C99.6924 142.313 95.2976 142.239 94.5759 142.165C91.0613 141.806 87.4465 141.157 83.9772 140.479C82.9157 140.272 81.8057 139.868 80.7507 139.82C80.2588 140.085 77.5856 145.172 77.1293 146.063C73.5274 153.098 70.5468 160.74 68.8542 168.478C68.9675 168.672 69.1552 168.727 69.3526 168.798C70.1779 169.098 72.1455 169.405 73.1067 169.57C80.0031 170.749 87.262 171.169 94.2426 171.23C95.8413 171.243 97.4044 171.14 98.9966 171.04V171.033ZM100.958 171.056C110.372 171.007 119.725 169.473 128.857 167.351C129.168 166.721 128.728 166.146 128.647 165.607C127.65 159.086 126.964 152.552 124.893 146.273C124.65 145.54 123.191 141.293 122.796 141.118L115.265 142C111.21 142.61 106.437 142.035 102.492 142.481C102.243 142.51 101.815 142.581 101.686 142.804C101.479 143.156 101.634 145.469 101.605 146.112C101.437 150.081 101.23 154.067 101.12 158.056C101.11 158.369 100.935 158.692 100.951 159.018L100.958 171.049V171.056ZM34.7766 155.74C34.4562 155.824 32.4076 159.871 32.1034 160.51C29.7474 165.416 27.4497 171.805 26.4659 177.154C26.2361 178.407 25.9481 178.753 27.016 179.583C28.2685 180.558 30.385 181.792 31.8122 182.544C33.8607 183.626 36.0581 184.408 38.1487 185.4C38.3008 185.39 38.4724 184.986 38.5112 184.821C38.9966 182.851 39.029 180.219 39.3979 178.123C39.6698 176.592 40.0646 174.867 40.4335 173.346C41.372 169.454 42.6957 165.655 44.1584 161.938L34.7798 155.743L34.7766 155.74ZM158.045 184.444C158.22 184.592 159.443 184.082 159.738 183.969C162.608 182.89 166.977 181.01 169.505 179.353C169.903 179.092 171.068 178.294 171.136 177.906C171.249 177.267 170.301 173.449 170.09 172.5C169.1 167.991 167.932 163.55 165.938 159.377C165.689 158.853 164.618 156.496 164.23 156.389C163.964 156.315 163.809 156.412 163.579 156.489C162.44 156.883 160.249 158.375 158.99 159.008C157.359 159.829 155.686 160.575 154.006 161.295C153.569 161.537 153.65 161.957 153.712 162.374C154.191 165.726 155.835 169.754 156.537 173.275C157.239 176.795 157.605 180.703 158.048 184.437L158.045 184.444ZM151.812 162.183C146.99 164.302 142 166.069 136.929 167.496C135.314 167.952 133.217 168.23 131.709 168.74C130.589 169.118 131.404 170.3 131.505 171.153C131.819 173.817 132.032 176.517 132.168 179.205C133.006 183.132 132.188 187.783 132.644 191.643C132.767 192.68 133.857 192.131 134.595 191.959C140.734 190.548 148.414 188.193 154.317 185.981C154.741 185.823 155.9 185.432 156.084 185.157L156.239 184.699C155.841 177.658 154.336 170.726 152.463 163.95C152.378 163.646 152.022 162.196 151.815 162.18L151.812 162.183ZM46.0905 162.681C45.5403 162.774 44.7442 165.213 44.5241 165.804C42.4885 171.317 40.4885 179.495 40.1617 185.345C40.1487 185.59 40.1164 185.839 40.2458 186.068C40.3656 186.268 43.2329 187.257 43.728 187.431C49.3397 189.395 57.605 192.386 63.385 192.996C63.6309 193.022 63.8769 193.051 64.1067 192.935C64.2717 192.819 64.2426 192.622 64.2652 192.447C64.4853 190.655 64.2846 188.219 64.4206 186.307C64.6374 183.255 65.0257 179.847 65.4109 176.805C65.6795 174.683 66.1423 172.571 66.4691 170.455L66.0808 169.796C59.1779 168.168 52.44 165.82 46.0905 162.677V162.681ZM128.417 169.483C126.084 169.625 122.964 170.597 120.556 171.007C115.074 171.944 109.673 172.577 104.12 172.835C103.459 172.868 101.408 172.664 101.035 172.987C100.663 173.31 100.997 173.808 100.964 174.192C100.404 180.771 100.201 189.934 100.951 196.481C100.971 196.656 100.948 196.853 101.11 196.966C103.466 197.224 105.815 196.759 108.155 196.552C114.1 196.029 120.178 195.406 125.993 194.023C127.259 193.723 129.243 193.339 130.388 192.922C131.534 192.505 130.883 191.498 130.864 190.668C130.718 184.479 130.401 178.536 129.595 172.406C129.44 171.227 129.89 169.389 128.414 169.48L128.417 169.483ZM68.7183 170.449C68.3073 170.526 68.1293 171.337 68.0452 171.695C66.8672 176.669 66.6406 182.493 66.3526 187.599C66.2976 188.591 65.6503 192.874 66.1876 193.416C66.3558 193.584 67.8736 193.859 68.2588 193.93C74.8219 195.157 81.4497 196.019 88.0969 196.562C91.2944 196.824 95.4691 197.431 98.6147 197.053C98.7895 197.034 98.9869 197.059 99.1034 196.895L98.9481 173.145C98.8057 173.016 98.6342 173.013 98.4562 172.994C95.8542 172.674 92.2976 173.091 89.55 173.007C85.3623 172.881 81.1293 172.435 76.9578 172.018L68.7151 170.455L68.7183 170.449ZM156.259 211.242C161.993 208.897 167.265 205.515 172.01 201.546C173.145 195.829 173.566 189.382 172.55 183.601C172.459 183.081 172.061 181.265 171.9 180.862C171.796 180.6 171.576 180.442 171.375 180.264C167.378 183.087 162.514 184.595 158.116 186.708C158.139 190.009 158.301 193.335 158.207 196.643C158.126 199.54 157.977 202.599 157.511 205.47C157.197 207.405 156.553 209.301 156.259 211.239V211.242ZM39.5144 210.593L38.2264 199.863C38.0096 195.735 38.1584 191.64 38.1455 187.518C36.1617 186.407 33.9578 185.616 31.9384 184.515C29.8995 183.404 28.0872 181.963 26.0225 180.904C25.8445 181.01 25.8186 181.123 25.7798 181.314C25.4821 182.803 25.5306 184.182 25.4497 185.664C25.1293 191.543 25.2232 197.45 26.0613 203.293C26.1681 203.503 26.2491 203.729 26.4303 203.894C29.618 206.814 35.2037 208.419 38.9222 210.644L39.5177 210.596L39.5144 210.593ZM153.958 212.495C154.45 210.602 155.039 208.684 155.404 206.759C156.039 203.422 156.317 199.563 156.427 196.158C156.498 193.92 156.686 190.18 156.427 188.074C156.375 187.644 156.233 187.412 155.76 187.438L132.799 194.527L132.485 209.385L131.356 219.468C131.589 219.52 131.751 219.604 132.006 219.565C133.291 219.375 135.094 218.519 136.398 218.131C139.501 217.207 142.511 216.2 145.586 215.198C148.369 214.294 151.275 213.706 153.955 212.495H153.958ZM41.8251 212.004C48.2846 215.134 55.1293 217.617 62.0808 219.465C63.249 219.775 65.4011 220.453 66.4821 220.57C66.9545 220.621 67.1778 220.612 67.1552 220.062C67.1131 218.99 66.5856 217.404 66.4011 216.284C65.5047 210.864 64.8866 205.331 64.4173 199.866C64.2879 198.338 64.4173 196.656 64.1099 195.17C63.8672 194.863 57.6277 193.7 56.6212 193.445C51.9416 192.257 47.0937 190.519 42.5015 188.978C41.9999 188.81 40.3526 187.971 39.9902 188.232C39.8283 188.361 39.8542 188.542 39.8316 188.72C39.5921 190.674 39.7539 194.246 39.8316 196.32C39.9707 200.099 40.4141 204.495 40.9901 208.235C41.0905 208.887 41.5371 211.726 41.8251 212.001V212.004ZM130.854 194.96C130.521 194.75 124.133 196.333 123.152 196.514C115.883 197.857 108.514 198.542 101.145 198.997L101.764 223.589L102.191 223.78C110.068 223.602 117.874 222.659 125.573 221.041C126.175 220.915 129.139 220.318 129.378 220.079C129.744 219.484 129.498 218.751 129.582 218.102C130.372 211.813 130.686 205.551 130.867 199.21C130.887 198.545 131.323 195.257 130.854 194.96ZM99.8057 223.644L99.1908 199.046C88.2782 198.881 77.4173 197.596 66.728 195.477C66.5241 195.464 66.2102 195.583 66.1099 195.748C65.8639 196.149 66.7474 201.494 66.5209 202.444C67.3591 208.186 67.5953 214.342 69.0193 219.962C69.2846 221.015 69.3526 221.18 70.4238 221.464C78.1584 223.531 88.8866 223.467 97.0031 223.661C97.8866 223.683 98.8866 224.103 99.8024 223.644H99.8057ZM171.233 204.155L164.391 208.952L155.628 213.6C153.336 220.776 151.366 228.079 148.498 235.049C148.094 236.028 147.495 237.074 147.123 238.033C147.048 238.23 146.767 238.951 147.123 238.999C151.427 237.255 155.88 235.74 159.634 232.93C162.469 230.811 163.369 227.049 164.712 223.958C167.482 217.585 170.433 211.322 171.605 204.394L171.23 204.152L171.233 204.155ZM39.9578 213.222C36.5727 211.313 32.8963 209.956 29.4885 208.096C29.1196 207.896 26.8995 206.4 26.7442 206.558C27.728 213.884 30.4012 221.193 33.9902 227.646C35.9513 231.17 36.5435 232.126 40.1584 234.077C41.8348 234.981 44.4044 236.335 46.1455 236.977C46.3267 237.045 47.207 237.291 47.2749 237.22C47.3202 236.984 47.2523 236.803 47.1811 236.586C46.4756 234.406 45.2393 232.058 44.4529 229.788C43.2458 226.312 42.2555 222.721 41.3688 219.148C41.1423 218.228 40.3041 213.554 39.9578 213.215V213.222ZM73.6342 244.483L67.5824 222.692C59.0937 220.66 50.7054 218.157 42.7636 214.533C42.5953 214.449 42.4497 214.462 42.3461 214.627C42.1746 214.895 42.8672 217.634 42.9966 218.183C44.6633 225.124 47.2135 231.958 50.0743 238.473C56.3332 240.834 62.7766 242.839 69.3979 243.96C70.0063 244.064 73.4626 244.726 73.6374 244.483H73.6342ZM144.249 239.926C148.136 231.945 150.764 223.46 153.285 214.966L153.09 214.64L131.139 221.61C130.495 227.365 129.346 233.053 128.048 238.686C127.657 240.385 126.825 242.533 126.576 244.164C126.537 244.409 126.602 244.58 126.679 244.803C132.683 243.815 138.602 242.129 144.249 239.926ZM101.789 225.628L103.052 246.515L110.586 246.593C113.789 246.292 117.048 246.295 120.259 245.921C121.191 245.811 122.984 245.643 123.799 245.42C124.035 245.356 124.239 245.239 124.414 245.065C125.113 242.478 125.857 239.878 126.463 237.265C127.437 233.082 128.417 228.657 128.909 224.374C128.958 223.954 129.207 222.314 128.938 222.123C128.605 221.884 124.113 222.986 123.304 223.137C119.016 223.932 114.265 224.785 109.929 225.12C108.864 225.204 102.019 225.256 101.786 225.631L101.789 225.628ZM69.9157 223.183L69.9546 224.032C72.0031 230.96 73.194 238.179 75.9028 244.887C76.0678 245.029 76.262 245.087 76.4756 245.123C81.6406 245.969 87.0937 246.221 92.317 246.418C94.7345 246.509 98.0419 246.88 100.401 246.593C100.579 246.57 100.764 246.599 100.89 246.434C101.032 246.228 100.98 243.615 100.967 243.108C100.845 238.44 100.259 233.754 99.9837 229.08C99.9448 228.434 100.155 225.96 99.8316 225.682C99.6762 225.55 99.1714 225.466 98.9416 225.443C96.8251 225.227 94.44 225.369 92.3073 225.288C85.44 225.024 78.0743 224.81 71.3364 223.464C70.906 223.376 70.4821 223.015 69.919 223.183H69.9157ZM55.8478 252.074C55.9384 251.741 55.7345 251.634 55.6115 251.421C53.3785 247.578 50.3558 244.028 48.6471 239.813L39.3558 235.453L39.5079 236.186C43.3753 240.495 46.7733 245.265 51.2426 249.002C52.2134 249.816 53.9772 251.26 55.0484 251.822C55.3105 251.961 55.5112 252.141 55.8445 252.074H55.8478ZM152.961 242.975C154.22 241.596 155.932 239.845 156.971 238.34C157.181 238.033 158.084 236.703 157.874 236.419C153.964 238.415 149.841 239.91 145.754 241.509L145.2 242.245L139.44 253.924L139.822 254.15C141.87 252.784 144.016 251.512 145.942 249.965C148.317 248.056 150.88 245.252 152.961 242.972V242.975ZM82.5274 263.207C82.5533 262.974 82.5403 262.784 82.44 262.567C82.0581 261.731 81.0257 260.51 80.5274 259.635C78.152 255.455 76.3461 250.953 74.3688 246.576C73.5306 246.127 72.4918 246.234 71.6309 246.082C66.9707 245.252 62.6115 244.351 58.0743 242.988C55.8575 242.323 53.6633 241.538 51.4821 240.776C51.2555 241.028 51.906 242.21 52.0678 242.529C52.8866 244.154 54.1843 246.089 55.1973 247.639C56.3558 249.409 59.1649 253.785 60.6601 254.981C61.8769 255.956 67.8963 258.792 69.5662 259.444C72.4076 260.555 76.1649 261.67 79.1325 262.483C79.6083 262.613 82.3655 263.372 82.5306 263.207H82.5274ZM142.838 242.714L126.094 246.899C125.479 247.281 125.188 249.493 124.942 250.268C124.611 251.308 124.262 252.384 123.88 253.404C122.867 256.111 120.864 259.121 120.081 261.715C120.013 261.941 120.032 262.173 120.042 262.4C123.068 261.479 126.194 260.63 129.139 259.457C130.366 258.969 134.56 257.193 135.388 256.495C135.932 256.04 137.126 254.16 137.531 253.469C139.492 250.126 141.126 246.199 142.838 242.71V242.714ZM85.0128 262.987C85.2879 263.307 85.6115 263.617 85.8704 263.985C90.9513 264.961 96.1196 265.613 101.294 265.881C101.544 265.704 101.466 262.106 101.453 261.505C101.388 258.517 101.233 255.465 101.116 252.481C101.084 251.689 101.317 248.944 100.883 248.514C100.722 248.356 100.602 248.372 100.404 248.346C98.673 248.143 96.3914 248.421 94.5662 248.363C89.3591 248.195 84.5209 247.562 79.372 247.064C78.495 246.98 77.5856 246.948 76.7054 246.903C76.5694 247.029 77.8736 249.942 78.0419 250.33C79.7442 254.231 82.2717 259.783 85.0128 262.981V262.987ZM123.226 247.258C122.89 247.352 122.553 247.497 122.204 247.536C117.832 248.046 113.521 248.262 109.129 248.366C108.191 248.388 103.511 248.198 103.126 248.505C102.618 248.905 103.055 249.839 103.068 250.368C103.165 254.493 103.152 258.333 103.391 262.474C103.434 263.201 103.188 265.365 103.624 265.794C103.887 266.056 104.977 265.975 105.404 265.949C108.634 265.759 112.278 264.954 115.346 263.93C116.948 263.398 117.184 263.268 118.022 261.76C119.249 259.544 121.019 255.759 121.929 253.395C122.359 252.28 123.401 249.302 123.556 248.24C123.592 247.994 123.65 247.742 123.573 247.497L123.226 247.258Z" fill="#0F2A15" stroke="#0F2A15" stroke-width="1.10323" stroke-miterlimit="10"/>
<path d="M21.7879 245.522C22.542 246.394 25.3122 248.316 25.0921 249.501C24.9044 250.512 22.2281 251.901 21.3899 252.76C19.1601 255.053 16.8203 261.745 16.0986 264.907C15.9595 265.518 16.1925 266.907 15.4158 267.291C13.8074 268.089 13.6391 264.727 13.4287 263.945C12.1989 259.365 10.1731 254.517 5.8203 252.172C5.05331 251.759 2.5161 251.21 4.26691 249.869C5.45137 248.962 6.33163 248.619 7.41254 247.36C9.42548 245.015 11.6617 238.555 12.4611 235.451C13.008 233.329 13.0824 230.409 13.7135 228.471C13.9077 227.871 14.3705 227.338 15.0468 227.625C16.0145 228.035 16.0501 231.314 16.2734 232.383C16.9044 235.409 19.8332 243.254 21.7879 245.522ZM21.0015 247.269C19.7297 245.896 18.9595 244.64 18.1342 242.951C16.7815 240.18 15.8753 237.189 14.8494 234.288C14.2831 234.915 14.2928 235.936 14.0371 236.704C13.4481 238.487 12.6941 240.496 11.9789 242.234C10.6682 245.412 9.28632 248.164 6.5258 250.344C11.1375 252.77 13.1245 257.233 14.8494 261.881C15.4676 261.332 15.419 260.447 15.6585 259.785C16.6811 256.978 18.3349 253.135 20.5064 251.067C20.843 250.744 22.6164 249.524 22.6779 249.349C22.8915 248.713 21.4352 247.734 21.0048 247.269H21.0015Z" fill="#0F2A15" stroke="#0F2A15" stroke-width="1.10323" stroke-miterlimit="10"/>
<path d="M158.889 121.978C158.478 121.685 158.186 120.971 158.504 120.486C158.643 120.276 160.617 119.349 161.138 118.959C164.607 116.336 167.128 110.574 168.199 106.44C168.4 105.661 168.918 101.999 169.381 101.73L170.319 101.776C170.83 102.073 170.591 103.878 170.662 104.498C171.16 108.956 173.05 115.706 176.215 118.968C176.876 119.65 178.682 120.641 178.824 121.539C178.966 122.437 176.72 123.697 176.063 124.294C174.177 126.009 169.924 132.14 169.186 134.536C168.837 135.663 168.449 139.769 167.005 139.772C165.406 139.284 165.94 136.968 165.772 135.689C165.319 132.211 163.28 124.943 160.461 122.754C159.918 122.334 159.254 122.24 158.892 121.982L158.889 121.978ZM169.656 108.491H169.044C168.138 111.856 166.4 115.645 164.018 118.242C163.112 119.23 162.07 119.911 161.109 120.819C164.792 123.916 166.232 128.635 167.086 133.209L167.494 133.483C169.837 129.314 172.436 124.711 176.293 121.772C176.381 121.413 174.876 120.247 174.533 119.847C172.452 117.431 171.326 115.038 170.439 111.989C170.105 110.835 169.85 109.673 169.659 108.491H169.656Z" fill="#0F2A15" stroke="#0F2A15" stroke-width="1.10323" stroke-miterlimit="10"/>
<path d="M32.2225 256.603C33.8439 256.145 33.3358 259.873 33.4005 260.703C33.6206 263.481 34.1254 266.11 35.6594 268.455C36.0801 269.097 37.4814 270.538 37.4426 271.181C37.3876 272.037 36.0122 272.563 35.4264 273.051C33.6594 274.524 32.1254 276.213 31.5041 278.496C31.1643 279.743 31.4879 282.831 29.5267 282.001C28.6368 279.123 28.6724 275.441 25.9669 273.445C25.352 272.993 23.9086 272.721 24.0187 271.678C24.0607 271.287 25.7274 269.873 26.119 269.408C28.407 266.707 30.2193 262.702 31.2193 259.327C31.4102 258.688 31.5041 256.804 32.2225 256.603ZM31.7792 263.206C31.53 262.974 31.5041 263.274 31.4232 263.413C30.6788 264.708 30.1708 266.132 29.3261 267.45C28.4814 268.768 27.297 269.992 26.4394 271.362L26.4653 271.575C28.1837 272.631 29.4847 274.317 30.0025 276.274C30.3746 276.549 31.1093 274.898 31.3229 274.608C31.9216 273.79 32.6594 273.015 33.3941 272.318C33.7436 271.985 34.9604 271.3 34.9604 270.867C33.928 269.272 32.8989 267.621 32.3423 265.79C32.2161 265.377 31.8763 263.293 31.7792 263.203V263.206Z" fill="#0F2A15" stroke="#0F2A15" stroke-width="1.10323" stroke-miterlimit="10"/>
<path d="M185.999 142.91C186.601 143.576 188.407 144.661 188.688 145.142C189.429 146.408 187.002 147.561 186.251 148.375C184.707 150.048 184.135 152.635 183.83 154.838C183.711 155.713 184.057 158.449 182.491 158.113C181.465 157.894 181.533 156.243 181.358 155.526C180.898 153.627 179.85 150.303 177.691 149.664C176.782 149.396 175.368 150.045 175.015 148.931C174.698 147.923 176.863 146.576 177.526 145.801C179.005 144.076 180.051 140.701 180.711 138.489C180.996 137.539 181.144 135.937 181.445 135.188C181.94 133.951 182.915 134.848 183.216 135.753C184.144 138.527 183.753 140.426 185.996 142.907L185.999 142.91ZM184.546 144.034C183.478 142.771 182.63 141.328 182.135 139.745C180.979 141.812 180.61 144.199 179.212 146.189C178.795 146.783 177.934 147.061 178.19 147.958C179.924 148.462 181.368 150.21 182.057 151.847C182.096 151.876 182.546 151.615 182.614 151.518C182.824 151.211 183.199 149.719 183.481 149.157C184.167 147.791 185.173 146.864 186.229 145.798C186.229 145.533 184.814 144.344 184.549 144.031L184.546 144.034Z" fill="#0F2A15" stroke="#0F2A15" stroke-width="1.10323" stroke-miterlimit="10"/>
<path d="M7.54919 270.57C7.73042 270.544 7.94078 270.67 8.07994 270.78C8.6301 271.219 9.11877 274.455 9.42298 275.411C9.8534 276.768 10.6172 278.499 11.5589 279.575C12.1544 280.253 13.588 280.98 13.5913 281.913C13.5913 283.05 11.4165 283.315 10.5233 284.022C9.4068 284.907 8.3356 288.114 7.96343 289.536C7.78544 290.217 7.91489 292.61 6.37767 291.687C5.70453 291.283 5.52654 288.305 5.2288 287.349C4.67864 285.582 3.50388 284.042 2.09288 282.892C1.68511 282.559 0.578318 282.239 0.552428 281.593C0.51683 280.776 1.90842 280.143 2.42945 279.655C4.05081 278.141 5.49094 275.864 6.22557 273.761C6.50065 272.973 6.58155 271.797 6.82427 271.132C6.88576 270.967 7.4068 270.592 7.55243 270.57H7.54919ZM8.95049 282.859C9.4424 282.362 10.2871 282.042 10.8307 281.59C9.23851 279.901 8.13172 277.831 7.68188 275.537L7.20939 275.389C6.1479 277.566 4.91489 279.468 3.10906 281.102C3.98609 282.11 4.97314 282.94 5.72719 284.106C6.21586 284.859 6.42298 285.721 7.03463 286.348C7.60744 285.266 8.07346 283.748 8.95049 282.859Z" fill="#0F2A15" stroke="#0F2A15" stroke-width="1.10323" stroke-miterlimit="10"/>
</svg>
