<svg width="120" height="102" viewBox="0 0 120 102" fill="none" xmlns="http://www.w3.org/2000/svg">
<g clip-path="url(#clip0_2351_813)">
<path d="M53.4821 63.3225C54.3028 61.9471 70.3788 46.0642 81.1663 36.1709C85.6771 32.0339 93.1855 21.8938 100.237 23.5131C103.015 24.1512 108.85 30.7411 103.314 36.1715C98.2014 41.1853 95.1628 46.1106 88.7281 51.5406C77.3561 61.1369 69.2363 69.6314 59.9851 77.2438C55.4972 80.9367 52.4449 84.4447 50.1896 86.3609C49.0798 87.3039 47.7439 87.8228 46.6071 86.7913C40.0569 80.848 37.5301 74.8259 32.2372 64.0482C28.2645 55.9586 23.6259 50.9609 19.7787 43.7292C13.1552 31.2793 13.789 20.5687 15.3723 18.2115C16.9989 15.7899 16.9804 15.0259 20.2612 14.4496C23.7577 13.8354 25.991 15.5395 28.2645 18.2119C32.7649 23.502 39.6178 30.9895 42.4085 36.1709C46.6071 43.9664 51.2379 49.7486 53.4821 57.8922" stroke="#0F2A15" stroke-width="28.6484" stroke-linecap="round"/>
</g>
<defs>
<clipPath id="clip0_2351_813">
<rect width="120" height="102" fill="white"/>
</clipPath>
</defs>
</svg>
