<svg width="286" height="341" viewBox="0 0 286 341" fill="none" xmlns="http://www.w3.org/2000/svg">
<path d="M72.6169 45.7906C75.4833 24.506 111.908 25.4867 110.232 51.6245C110.158 52.7687 108.995 56.1429 109.833 56.7111L155.046 61.5409L155.465 60.7509L146.269 24.8212C145.524 23.21 141.444 19.5166 139.9 18.3685C138.445 17.2827 132.903 14.7529 132.721 13.4725C132.6 12.6397 133.054 11.3242 134.02 11.4176L140.877 14.4649C141.44 14.0252 135.253 8.53374 134.955 7.74369C134.714 7.10153 135.017 5.78219 135.688 5.54868C137.763 4.82868 141.207 11.0829 143.589 11.3553C143.484 9.14476 138.1 2.76989 138.729 1.25206C138.837 0.987411 139.683 0.189579 139.962 0.135093C141.863 -0.238526 145.295 8.23796 147.463 9.02411C147.82 7.31948 145.264 1.2326 146.664 0.240173C147.824 -0.172364 148.464 -0.125662 149.108 0.956277C150.031 2.50913 151.536 11.3787 153.103 11.7484C155.38 10.8377 155.647 7.94607 156.442 5.96511L158.758 6.13635C159.596 7.27667 158.095 10.6937 157.947 12.3361C157.587 16.3214 157.629 20.9916 157.722 25.0041L171.891 63.2378L175.393 63.8994V57.4778C175.393 55.9989 177.244 49.9704 177.922 48.3397C181.502 39.7037 188.662 35.7145 197.909 37.6099C209.293 39.945 211.589 51.3209 218.253 59.2214L235.986 33.4339C236.059 29.6549 236.866 26.1016 237.401 22.4005C237.626 20.8593 237.336 15.7064 238.891 15.3017L240.939 15.6403V22.451C240.939 22.6651 241.652 23.5563 241.908 23.8054C242.599 23.8171 245.589 18.0999 246.051 17.0725C247.094 14.749 247.28 9.50281 250.577 11.4176C251.5 12.881 247.979 20.3494 248.308 20.6997C249.037 20.871 249.227 20.2872 249.666 19.9252C251.919 18.0649 255.654 11.0751 258.338 14.3599C258.742 15.9828 252.443 20.8748 252.575 23.424C252.943 23.8599 258.579 18.4308 259.933 19.3181C263.4 21.0928 255.166 24.9535 254.51 26.5336C256.228 27.0123 262.333 24.074 261.519 27.8607C261.434 28.2577 255.166 30.1881 253.99 30.8808C247.284 34.8466 239.589 48.7951 235.342 55.7576C232.883 59.7935 230.591 63.9306 228.042 67.908C227.22 69.3869 231.378 71.0877 232.65 71.6248C239.639 74.5904 247.129 74.1623 254.262 77.1824C260.685 79.9028 263.982 83.9036 269.284 87.7955C274.365 91.5278 279.12 93.1118 285.539 92.6992C276.095 101.44 263.334 93.2363 252.571 92.6992C255.689 95.9917 260.631 98.934 264.979 100.288C266.189 100.666 273.5 101.923 273.508 102.62C265.886 108.259 254.568 105.873 245.977 103.986C247.048 105.387 248.351 106.772 249.898 107.636C251.9 108.749 255.441 109.072 256.841 110.01C257.908 110.722 255.15 111.594 254.607 111.68C251.423 112.174 243.406 109.563 239.527 109.096C234.586 108.5 229.497 108.815 224.648 107.877L227.821 119.674C240.322 126.29 242.451 140.857 244.36 153.673C247.548 175.059 247.467 197.293 244.007 218.621L244.1 219.115C248.017 220.516 245.892 232.351 244.62 235.145C241.928 241.057 234.651 237.504 229.722 238.298C227.592 246.514 230.044 258.399 221.103 262.926C216.402 265.307 203.797 264.155 199.22 261.618C189.271 256.107 194.445 244.49 194.771 235.531L127.461 229.284C127.337 236.434 128.916 244.412 131.867 250.97C136.425 261.081 145.633 268.148 150.109 278.201C155.073 289.347 154.204 301.105 153.654 312.979C155.733 312.955 159.165 312.543 159.778 315.201C159.949 322.105 162.028 329.792 162.152 336.571C162.21 339.774 158.157 338.159 155.767 338.256C154.74 338.299 153.052 338.568 152.013 338.766C148.076 339.517 146.37 342.288 145.555 336.859C144.558 330.22 144.663 323.347 143.569 316.703C143.81 314.049 148.002 313.442 150.159 313.356C151.579 298.365 151.466 285.164 142.553 272.535C133.302 259.423 126.375 254.418 124.176 236.877C123.866 234.39 124.083 231.425 123.784 229.094C123.714 228.556 123.497 227.875 123.008 228.518C123.094 241.466 123.524 253.994 120.487 266.658C118.509 274.901 114.735 282.583 112.8 290.857C111.202 297.688 110.314 304.732 110.635 311.765C112.575 312.224 116.581 312.699 116.799 315.147L113.607 338.167C112.416 339.556 108.083 337.101 106.524 337.101H98.379C98.3247 337.101 97.6769 336.486 97.5955 336.311L100.691 313.341C101.435 311.29 105.271 311.551 107.11 311.414C107.059 304.351 107.699 297.275 109.235 290.39C111.543 280.046 116.446 270.709 118.242 260.12C120.037 249.53 119.471 239.395 119.514 228.907L117.291 238.932C113.513 255.835 100.183 266.876 91.5797 280.851C85.9634 289.978 82.5657 300.618 74.1413 307.713C76.0845 310.056 78.9314 310.916 77.8337 314.543C73.7767 319.358 70.2393 327.601 66.159 332.014C65.6819 332.528 65.0691 333.197 64.3011 333.123C63.7271 333.069 60.0268 329.831 58.9719 329.15C57.6104 328.274 52.4247 326.071 52.0213 325.62C51.8041 325.378 51.6102 325.176 51.6141 324.822L51.8468 323.491L64.6308 304.783C66.6865 302.953 70.3945 306.051 71.0345 305.771C80.2695 298.369 83.6052 286.475 89.8769 276.804C95.4234 268.25 102.936 261.046 107.948 252.126C112.218 244.521 114.53 236.313 116.027 227.739C114.987 227.517 115.36 228.012 115.065 228.506C107.854 240.563 100.501 248.409 87.3209 254.001C80.5216 256.885 70.7707 258.267 65.0924 262.832C58.8943 267.814 58.7624 278.446 54.4028 284.806L54.3679 285.323C56.5089 286.222 58.5801 287.841 57.6764 290.414L45.1677 309.795C43.4107 310.332 40.2535 307.052 38.5779 306.04C37.2786 305.257 32.4419 303.304 31.864 302.661C31.158 301.875 31.4218 300.801 31.9299 299.992L44.5549 281.525C46.6843 280.886 49.2791 282.665 51.2727 283.226C54.6316 278.232 55.3298 271.78 57.9052 266.51C63.4168 255.227 76.2047 254.807 86.4327 250.378C97.4326 245.615 106.144 237.574 111.772 226.965C106.245 227.085 100.85 227.124 95.6445 225.046L47.3902 219.57C45.7612 227.914 47.6346 239.975 38.0698 243.883C33.1982 245.871 19.972 244.299 15.7831 240.964C7.35476 234.246 12.6879 223.057 13.2542 214.122C9.08464 213.234 0.881289 213.978 0.10168 208.443C-0.297821 205.622 0.497303 196.048 2.18064 193.864C2.61892 193.296 3.88337 192.724 3.95318 192.44C4.45353 190.397 4.12384 185.575 4.33717 183.185C6.21444 162.22 11.6019 141.246 20.2901 122.133C24.6923 112.45 29.4088 101.491 41.1805 99.6968L28.2064 83.3393C21.9191 81.37 12.7344 79.895 8.66962 74.1428C3.72822 67.1491 11.28 60.7704 17.9086 65.0631C16.6984 57.7697 23.808 52.9438 29.5096 58.2912C35.409 63.8216 31.0145 75.2831 31.2666 82.2106C32.0152 83.312 41.2852 95.945 41.9523 95.4196C45.1173 86.8536 48.0341 78.1436 51.3658 69.6399C53.4254 64.3781 56.2995 54.1698 63.4866 54.1698H72.9893C73.094 53.8856 72.6014 53.7027 72.6014 53.586C72.6014 51.2586 72.3105 47.97 72.6014 45.8022L72.6169 45.7906ZM149.798 12.519H149.038C149.038 14.4805 146.47 14.1536 146.009 14.5467C145.823 14.7062 145.865 15.4924 145.563 15.831C145.066 16.3836 143.162 17.3255 143.604 17.9559C145.667 19.0651 148.456 21.8361 149.321 24.0973L170.068 106.998L207.229 114.326L210.321 104.768C203.898 102.464 197.921 98.6226 192.859 94.0575C191.28 92.6331 186.044 86.3166 185.102 85.8846C182.976 84.9116 178.306 86.7836 176.883 83.2342L154.643 25.3777L154.852 14.8502C152.645 16.333 150.454 14.893 149.806 12.519H149.798ZM249.099 25.3583C247.668 25.4945 246.668 25.4439 245.803 24.1985C244.112 26.4597 242.901 28.1604 239.795 26.915L239.1 34.2045L220.545 61.5487C220.347 62.2804 221.437 63.4402 221.961 64.0746C222.314 64.5027 224.676 66.9429 224.885 66.9896C225.42 67.1102 225.541 66.6938 225.773 66.3669C228.55 62.5139 231.207 56.8629 233.81 52.6402C237.142 47.2344 241.04 40.2291 244.899 35.3565C245.915 34.0761 250.678 30.0246 250.853 29.6471C251.64 27.9503 248.188 27.8024 249.099 25.3661V25.3583ZM80.2928 66.3046C77.1782 64.6038 75.8207 61.2646 73.9163 58.5014C67.6523 58.9256 61.299 56.1313 58.0836 63.1172C54.364 71.1928 50.753 83.0357 47.7897 91.7068C47.4794 92.6097 45.1832 99.0313 45.4703 99.2998C50.4776 100.055 49.6437 96.8674 51.0982 93.4698C56.5555 80.7395 66.0426 72.7339 80.3781 72.839L80.2928 66.3007V66.3046ZM23.6412 59.2953C20.996 59.8791 20.7671 63.0393 21.0697 65.2188C21.2791 66.7132 23.1254 68.955 21.6515 70.1536C19.4678 71.9322 15.7637 65.5107 11.7338 67.2075C10.6012 67.6862 10.0582 69.0328 10.2521 70.212C11.1364 75.6373 23.1137 79.0972 27.7681 79.8171C28.2684 79.6576 28.3189 79.3229 28.4003 78.8714C28.986 75.6684 29.8122 68.8265 29.4592 65.7519C29.1062 62.6774 27.3104 58.4858 23.6412 59.2992V59.2953ZM166.868 106.698L156.423 65.6157L108.487 60.7392L107.525 60.9727C106.156 63.051 104.612 65.4562 102.157 66.2851L102.095 72.8429C117.369 72.9285 127.042 82.919 131.677 96.6728C132.077 97.8637 132.674 101.518 133.345 102.005L166.868 106.698ZM98.9957 72.4537L98.9879 67.7835C93.7711 69.8734 88.4496 69.5621 83.0932 68.1727C83.2832 69.2274 82.5463 72.3993 83.7254 72.7884L98.9957 72.4537ZM176.142 68.2077L173.858 68.3595C175.777 71.9361 176.844 75.937 178.562 79.5953C179.656 81.9304 179.741 82.7555 182.775 82.5648C179.641 78.2526 177.306 73.4539 176.142 68.2077ZM130.021 101.639C127.64 91.376 121.368 80.4671 110.837 77.1084C103.398 74.7383 79.9631 74.7071 72.3765 76.6842C61.877 79.4202 55.5935 88.4221 52.4557 98.3463L130.021 101.639ZM239.783 218.399C243.371 197.192 243.417 174.919 240.109 153.661C238.313 142.11 236.75 127.745 224.377 123.134C216.639 120.25 203.611 117.969 195.182 116.233C160.325 109.049 125.087 105.005 89.4697 103.993C88.5504 103.966 87.7049 103.593 86.7857 103.573C72.7449 104.632 56.7533 102.211 42.9453 103.593C32.9888 104.589 29.0675 113.443 25.3478 121.351C15.0229 143.305 8.60756 167.921 8.22358 192.323L90.738 203.512C91.7116 203.497 91.952 202.279 92.5804 201.656C98.251 196.044 104.69 198.928 110.03 203.228C111.008 204.014 112.222 205.812 113.246 206.229C114.588 206.774 124.044 207.825 125.96 207.898C128.388 207.992 129.016 206.532 130.921 205.485C138.05 201.57 149.492 198.733 150.237 210.167C165.057 211.938 180.067 213.569 194.985 214.888C209.386 216.165 223.997 217.449 238.437 217.994C238.937 218.013 239.333 218.227 239.779 218.395L239.783 218.399ZM219.92 107.562L213.047 105.935L210.317 115.245L223.105 118.374L219.92 107.562ZM89.299 207.501L5.55506 196.254C4.46516 200.337 3.88724 204.4 4.4031 208.615C18.599 211.098 32.9577 213.304 47.2661 215.227C60.8995 217.06 75.8517 219.368 89.4736 220.356C89.8925 220.387 91.2422 220.485 91.2384 220.142C89.6132 216.064 88.1044 211.973 89.2952 207.501H89.299ZM106.361 205.548C103.708 202.465 99.4378 201.527 95.8889 203.61C95.3497 204.162 95.916 204.318 96.4629 204.384C99.7559 204.769 103.111 204.804 106.361 205.548ZM146.315 209.833C145.881 203.053 137.313 206.513 133.52 208.284L146.315 209.833ZM94.1202 208.019C91.5719 212.195 93.8254 218.364 97.4481 221.306C104.197 221.532 112.226 225.252 117.431 219.177L110.988 210.44L94.1202 208.015V208.019ZM123.427 211.783L116.446 211.004L120.13 216.06L123.423 211.786L123.427 211.783ZM145.923 214.118L128.741 212.23L122.659 218.979C123.951 220.333 126.119 221.882 127.981 222.193C130.789 222.664 137.538 221.423 140.214 220.255C142.778 219.138 145.035 216.795 145.923 214.118ZM242.114 222.68L150.349 214.518L149.612 214.888C147.847 221.555 141.835 223.968 135.835 225.595C156.803 227.848 177.833 230.288 198.871 232.012C212.551 233.137 226.27 234.098 239.996 234.379L240.605 234.118C241.804 230.436 242.316 226.552 242.11 222.68H242.114ZM35.7736 300.898C38.7331 301.852 41.3356 303.596 43.7249 305.534L53.8249 289.238C51.7537 287.024 48.802 285.747 45.9047 284.977L35.7736 300.898ZM55.9387 323.86C59.0766 324.744 61.524 326.888 64.2468 328.527L74.3701 313.726C74.6028 313.352 74.4554 313.041 74.2809 312.691C73.7069 311.535 67.7764 307.557 66.799 308.075L55.9387 323.86ZM101.319 333.594C104.399 333.485 107.517 333.664 110.445 334.703L110.833 334.392L112.97 315.89C110.081 315.006 107.087 314.703 104.073 314.956L101.315 333.594H101.319ZM156.392 316.474C153.25 316.443 150.112 316.267 147.091 317.26L149.026 335.929C152.032 335.45 155.36 334.536 158.331 335.147L156.392 316.47V316.474Z" fill="#0F2A15"/>
<path d="M64.3814 132.861C109.281 134.994 154.102 139.423 198.377 146.891C199.552 147.374 200.231 148.876 200.227 150.091C200.223 155.555 198.897 163.809 198.238 169.503C197.512 175.765 196.651 182.051 195.6 188.262C194.948 189.803 193.509 190.539 191.884 190.406C150.957 187.46 109.882 184.032 69.3848 177.466C67.1081 177.096 59.2344 176.326 58.2415 174.637C57.4618 173.309 58.1018 169.028 58.2725 167.219C59.2848 156.341 61.4452 145.525 62.2326 134.609C62.4459 133.437 63.3186 133.064 64.3852 132.857L64.3814 132.861ZM195.519 150.733C153.528 143.953 111.1 139.314 68.547 137.446C67.8217 137.415 67.1507 136.998 66.4138 137.057L62.5119 171.858C105.15 178.945 148.277 183.238 191.446 186.067L192.02 185.448C193.432 173.917 195.1 162.342 195.519 150.733Z" fill="#0F2A15"/>
<path d="M218.354 175.677C236.592 172.801 236.437 200.97 219.467 199.281C205.648 197.907 205.834 177.65 218.354 175.677ZM220.321 179.565C212.742 179.95 210.232 189.921 216.535 194.054C218.692 195.467 222.489 195.467 224.645 194.054C231.235 189.734 228.171 179.168 220.325 179.565H220.321Z" fill="#0F2A15"/>
<path d="M31.0324 157.786C46.5896 156.358 48.1993 180.168 33.2471 181.418C17.5773 182.725 15.7699 159.187 31.0324 157.786ZM37.5718 164.048C30.5631 157.02 19.6059 167.606 26.4439 175.02C33.4061 182.566 44.8287 171.33 37.5718 164.048Z" fill="#0F2A15"/>
<path d="M135.307 162.974L135.346 163.683C136.327 164.986 140.893 171.151 136.87 170.879C135.323 170.774 132.67 164.142 130.626 163.539C128.198 164.885 130.478 170.836 127.441 171.089C125.444 171.256 125.754 169.248 125.832 167.878C125.991 165.095 126.708 160.725 127.205 157.899C127.511 156.152 127.651 153.501 129.819 153.19C131.483 152.953 134.617 153.155 136.141 153.887C139.977 155.728 139.256 161.939 135.307 162.974ZM135.005 157.249C134.687 156.673 131.165 155.891 130.831 156.23C130.948 157.257 130.044 159.363 130.61 160.195C131.398 161.351 136.273 159.542 135.005 157.249Z" fill="#0F2A15"/>
<path d="M100.105 149.838C103.08 149.515 106.858 151.866 107.335 154.956C108.238 160.767 104.271 170.512 97.0291 167.134C90.4238 164.051 92.3127 150.687 100.101 149.838H100.105ZM99.7364 153.796C96.6296 154.47 95.5979 162.475 98.4022 163.993C103.801 166.916 107.73 152.068 99.7364 153.796Z" fill="#0F2A15"/>
<path d="M155.431 155.668C160.073 154.672 163.677 158.863 163.933 163.16C164.192 167.487 161.369 172.831 156.683 173.263C154.655 173.45 152.184 173.263 151.703 170.908C152.805 166.9 152.463 161.42 153.701 157.594C153.972 156.761 154.511 155.87 155.427 155.672L155.431 155.668ZM155.357 169.593C160.892 170.69 162.579 160.108 157.742 158.688C157.157 158.517 157.378 158.785 157.269 159.081C156.175 162.058 156.133 166.448 155.357 169.589V169.593Z" fill="#0F2A15"/>
<path d="M178.134 160.36C177.28 161.162 173.227 160.192 171.823 160.667L171.602 164.637C177.641 165.47 176.989 169.171 170.861 168.299C168.937 174.674 173.227 171.537 175.861 172.798C177.276 173.475 176.815 175.355 175.438 175.604C172.762 176.087 166.629 175.756 166.816 172.024C166.955 169.226 167.875 163.29 168.565 160.554C168.728 159.904 169.03 158.865 169.41 158.344C171.474 155.522 180.573 158.06 178.134 160.356V160.36Z" fill="#0F2A15"/>
<path d="M111.029 152.111C113.534 149.667 115.481 156.559 116.823 157.579C117.405 157.711 120.244 153.383 121.284 152.928C122.591 152.352 124.018 152.761 123.84 154.36C123.673 155.874 122.378 156.349 121.703 157.353C120.927 158.505 118.836 161.307 118.371 162.249C117.657 163.685 117.661 169.06 116.641 169.398C112.173 170.881 115.078 163.993 114.791 162.284C113.868 160.093 111.506 156.773 110.916 154.637C110.707 153.889 110.385 152.741 111.032 152.111H111.029Z" fill="#0F2A15"/>
<path d="M81.8783 159.988C82.4717 160.657 82.336 163.132 84.1434 162.634C86.4241 162.008 86.3039 152.317 87.2153 150.063C87.6265 149.048 88.5845 148.332 89.686 148.896C90.1864 149.192 90.229 149.585 90.2911 150.11C90.6635 153.305 89.4339 162.241 87.5024 164.825C84.574 168.737 77.7863 164.919 78.6086 160.645C78.915 159.05 80.9862 158.98 81.8783 159.988Z" fill="#0F2A15"/>
<path d="M145.892 154.619C148.58 153.774 148.503 157.004 148.371 158.709C148.061 162.749 146.703 166.785 146.401 170.848C146.199 171.743 145.594 171.992 144.729 171.93C143.049 171.817 143.317 170.264 143.383 168.98C143.561 165.442 144.465 159.546 145.086 155.954C145.167 155.479 145.392 154.771 145.892 154.615V154.619Z" fill="#0F2A15"/>
</svg>
