<svg width="2135" height="2544" viewBox="0 0 2135 2544" fill="none" xmlns="http://www.w3.org/2000/svg">
<path d="M542.963 342.38C564.394 183.233 836.742 190.566 824.214 386C823.663 394.555 814.963 419.785 821.227 424.034L1159.29 460.146L1162.42 454.239L1093.66 185.59C1088.09 173.543 1057.58 145.927 1046.04 137.343C1035.17 129.224 993.725 110.309 992.362 100.735C991.463 94.5077 994.856 84.672 1002.08 85.3704L1053.35 108.155C1057.56 104.867 1011.3 63.8074 1009.07 57.9002C1007.27 53.0987 1009.53 43.2339 1014.55 41.4879C1030.06 36.1044 1055.82 82.8678 1073.62 84.9048C1072.84 68.3761 1032.59 20.7106 1037.28 9.36174C1038.1 7.38295 1044.42 1.4175 1046.51 1.0101C1060.72 -1.78348 1086.38 61.5958 1102.59 67.474C1105.26 54.7283 1086.15 9.21624 1096.62 1.79579C1105.29 -1.28878 1110.08 -0.939585 1114.89 7.15015C1121.79 18.761 1133.05 85.0793 1144.76 87.8438C1161.79 81.0345 1163.79 59.4134 1169.73 44.6016L1187.05 45.882C1193.31 54.4082 1182.09 79.9578 1180.98 92.2379C1178.29 122.036 1178.61 156.956 1179.3 186.958L1285.24 472.834L1311.43 477.781V429.766C1311.43 418.708 1325.26 373.633 1330.34 361.44C1357.11 296.868 1410.64 267.04 1479.78 281.212C1564.9 298.672 1582.07 383.73 1631.89 442.803L1764.48 249.988C1765.03 221.732 1771.07 195.164 1775.07 167.49C1776.75 155.966 1774.58 117.438 1786.21 114.412L1801.52 116.944V167.868C1801.52 169.469 1806.85 176.133 1808.77 177.995C1813.93 178.082 1836.29 135.335 1839.74 127.652C1847.54 110.28 1848.93 71.0533 1873.59 85.3704C1880.49 96.3119 1854.15 152.154 1856.62 154.773C1862.07 156.054 1863.49 151.689 1866.77 148.982C1883.62 135.073 1911.55 82.8096 1931.62 107.37C1934.63 119.504 1887.53 156.083 1888.52 175.143C1891.28 178.402 1933.41 137.808 1943.54 144.443C1969.46 157.712 1907.89 186.579 1902.99 198.394C1915.84 201.973 1961.49 180.003 1955.4 208.317C1954.76 211.285 1907.89 225.719 1899.11 230.898C1848.96 260.551 1791.43 364.845 1759.67 416.904C1741.28 447.081 1724.14 478.014 1705.09 507.754C1698.94 518.811 1730.03 531.528 1739.54 535.544C1791.8 557.718 1847.8 554.517 1901.14 577.098C1949.16 597.439 1973.81 627.354 2013.46 656.453C2051.45 684.36 2087 696.204 2135 693.119C2064.38 758.477 1968.97 697.135 1888.49 693.119C1911.81 717.738 1948.76 739.737 1981.27 749.864C1990.31 752.686 2044.98 762.086 2045.04 767.295C1988.05 809.46 1903.43 791.622 1839.19 777.508C1847.19 787.984 1856.94 798.344 1868.51 804.804C1883.47 813.127 1909.95 815.542 1920.42 822.555C1928.4 827.88 1907.78 834.399 1903.72 835.039C1879.91 838.734 1819.96 819.209 1790.96 815.717C1754.01 811.264 1715.96 813.621 1679.71 806.608L1703.44 894.81C1796.91 944.279 1812.83 1053.2 1827.1 1149.03C1850.94 1308.93 1850.33 1475.18 1824.46 1634.64L1825.15 1638.34C1854.44 1648.81 1838.55 1737.31 1829.04 1758.2C1808.91 1802.4 1754.51 1775.83 1717.65 1781.77C1701.73 1843.2 1720.05 1932.07 1653.21 1965.91C1618.06 1983.72 1523.8 1975.11 1489.58 1956.14C1415.2 1914.93 1453.88 1828.07 1456.32 1761.08L953.036 1714.38C952.108 1767.83 963.912 1827.49 985.981 1876.52C1020.06 1952.12 1088.91 2004.97 1122.37 2080.13C1159.49 2163.47 1153 2251.38 1148.88 2340.17C1164.42 2339.99 1190.09 2336.91 1194.67 2356.78C1195.95 2408.41 1211.49 2465.88 1212.42 2516.57C1212.86 2540.52 1182.55 2528.44 1164.69 2529.17C1157 2529.49 1144.38 2531.5 1136.61 2532.98C1107.18 2538.6 1094.42 2559.32 1088.33 2518.72C1080.87 2469.08 1081.66 2417.69 1073.48 2368.02C1075.28 2348.17 1106.63 2343.63 1122.75 2342.99C1133.36 2230.9 1132.52 2132.19 1065.88 2037.76C996.712 1939.72 944.916 1902.3 928.473 1771.15C926.152 1752.55 927.776 1730.38 925.543 1712.95C925.021 1708.93 923.397 1703.84 919.743 1708.64C920.381 1805.46 923.6 1899.13 900.893 1993.82C886.102 2055.45 857.884 2112.9 843.413 2174.76C831.464 2225.83 824.823 2278.5 827.23 2331.09C841.731 2334.52 871.689 2338.07 873.313 2356.38L849.445 2528.5C840.542 2538.89 808.147 2520.53 796.489 2520.53H735.587C735.181 2520.53 730.338 2515.93 729.729 2514.62L752.872 2342.87C758.44 2327.54 787.122 2329.49 800.868 2328.47C800.491 2275.65 805.276 2222.75 816.761 2171.27C834.016 2093.92 870.674 2024.11 884.101 1944.93C897.528 1865.75 893.294 1789.98 893.613 1711.55L876.996 1786.51C848.749 1912.89 749.072 1995.45 684.748 2099.95C642.755 2168.19 617.35 2247.75 554.36 2300.79C568.889 2318.31 590.176 2324.74 581.969 2351.86C551.634 2387.86 525.185 2449.49 494.676 2482.49C491.109 2486.33 486.527 2491.34 480.784 2490.79C476.492 2490.38 448.825 2466.17 440.937 2461.08C430.758 2454.53 391.983 2438.06 388.967 2434.68C387.343 2432.88 385.893 2431.37 385.922 2428.72L387.662 2418.76L483.25 2278.88C498.62 2265.21 526.345 2288.37 531.13 2286.27C600.181 2230.93 625.122 2142 672.017 2069.68C713.488 2005.72 769.663 1951.86 807.132 1885.16C839.063 1828.3 856.347 1766.93 867.541 1702.82C859.769 1701.16 862.553 1704.86 860.349 1708.56C806.436 1798.71 751.451 1857.37 652.905 1899.19C602.066 1920.75 529.158 1931.08 486.701 1965.22C440.357 2002.46 439.371 2081.96 406.774 2129.51L406.513 2133.38C422.521 2140.11 438.008 2152.21 431.251 2171.45L337.723 2316.36C324.585 2320.38 300.978 2295.85 288.45 2288.28C278.735 2282.43 242.57 2267.82 238.249 2263.02C232.971 2257.14 234.943 2249.11 238.742 2243.06L333.14 2104.98C349.062 2100.21 368.464 2113.51 383.37 2117.7C408.485 2080.36 413.705 2032.12 432.962 1992.72C474.172 1908.35 569.788 1905.21 646.264 1872.1C728.511 1836.48 793.647 1776.36 835.727 1697.03C794.401 1697.93 754.061 1698.23 715.141 1682.69L354.34 1641.74C342.16 1704.13 356.167 1794.31 284.651 1823.53C248.226 1838.4 149.332 1826.64 118.011 1801.7C54.9921 1751.48 94.8684 1667.82 99.1026 1601C67.9265 1594.37 6.58947 1599.93 0.76027 1558.55C-2.22683 1537.45 3.71837 1465.86 16.3048 1449.54C19.5819 1445.29 29.0362 1441.01 29.5582 1438.89C33.2994 1423.61 30.8343 1387.56 32.4293 1369.69C46.4658 1212.93 86.7482 1056.11 151.71 913.201C184.626 840.801 219.892 758.856 307.91 745.441L210.901 623.134C163.891 608.41 95.2164 597.381 64.8234 554.371C27.8762 502.079 84.3411 454.385 133.904 486.482C124.855 431.949 178.014 395.865 220.646 435.848C264.756 477.199 231.898 562.898 233.783 614.695C239.38 622.93 308.693 717.388 313.681 713.46C337.346 649.411 359.154 584.286 384.066 520.703C399.466 481.36 420.955 405.031 474.694 405.031H545.747C546.53 402.907 542.847 401.539 542.847 400.666C542.847 383.265 540.671 358.675 542.847 342.467L542.963 342.38ZM1114.37 93.6056C1114.37 108.272 1095.17 105.828 1091.72 108.767C1090.33 109.96 1090.65 115.838 1088.38 118.369C1084.67 122.502 1070.43 129.544 1073.74 134.258C1089.17 142.551 1110.02 163.27 1116.49 180.177L1271.61 800.032L1549.47 854.827L1572.58 783.358C1524.56 766.131 1479.87 737.409 1442.02 703.275C1430.22 692.624 1391.07 645.396 1384.02 642.165C1368.13 634.891 1333.21 648.888 1322.57 622.349L1156.28 189.751L1157.84 111.036C1141.34 122.123 1124.95 111.356 1120.11 93.6056H1114.37ZM1862.54 189.606C1851.83 190.624 1844.35 190.246 1837.89 180.934C1825.24 197.841 1816.19 210.558 1792.96 201.246L1787.77 255.75L1649.03 460.205C1647.55 465.675 1655.7 474.347 1659.62 479.09C1662.26 482.291 1679.92 500.537 1681.48 500.886C1685.48 501.788 1686.38 498.674 1688.12 496.23C1708.89 467.421 1728.75 425.168 1748.21 393.595C1773.13 353.176 1802.27 300.796 1831.13 264.363C1838.73 254.789 1874.34 224.496 1875.64 221.674C1881.53 208.986 1855.72 207.88 1862.54 189.664V189.606ZM600.355 495.764C577.068 483.048 566.917 458.08 552.678 437.419C505.841 440.591 458.338 419.698 434.296 471.932C406.484 532.314 379.484 620.864 357.327 685.699C355.007 692.45 337.839 740.465 339.985 742.472C377.425 748.118 371.19 724.285 382.065 698.881C422.869 603.696 493.806 543.837 600.993 544.623L600.355 495.735V495.764ZM176.767 443.356C156.989 447.721 155.277 471.35 157.54 487.646C159.106 498.82 172.91 515.581 161.89 524.544C145.562 537.843 117.866 489.828 87.7342 502.516C79.2659 506.095 75.2058 516.163 76.6558 524.981C83.268 565.546 172.823 591.415 207.624 596.799C211.365 595.606 211.742 593.103 212.351 589.728C216.731 565.779 222.908 514.621 220.269 491.632C217.63 468.643 204.202 437.303 176.767 443.385V443.356ZM1247.69 797.791L1169.59 490.614L811.164 454.152L803.971 455.898C793.734 471.437 782.192 489.421 763.834 495.619L763.37 544.652C877.576 545.292 949.904 619.991 984.56 722.83C987.547 731.735 992.014 759.059 997.031 762.697L1247.69 797.791ZM740.198 541.742L740.14 506.822C701.134 522.449 661.344 520.121 621.294 509.732C622.715 517.618 617.205 541.335 626.021 544.245L740.198 541.742ZM1317.03 509.994L1299.95 511.129C1314.3 537.872 1322.28 567.786 1335.12 595.14C1343.3 612.6 1343.94 618.769 1366.62 617.343C1343.19 585.101 1325.73 549.221 1317.03 509.994ZM972.177 759.961C954.37 683.225 907.476 601.659 828.738 576.545C773.114 558.824 597.89 558.591 541.164 573.374C462.659 593.831 415.677 661.139 392.215 735.343L972.177 759.961ZM1792.88 1632.98C1819.7 1474.42 1820.05 1307.88 1795.31 1148.94C1781.88 1062.57 1770.2 955.163 1677.68 920.679C1619.83 899.117 1522.41 882.064 1459.39 869.086C1198.76 815.367 935.288 785.133 668.972 777.567C662.099 777.363 655.776 774.569 648.903 774.424C543.92 782.339 424.349 764.239 321.105 774.569C246.66 782.019 217.34 848.221 189.528 907.352C112.327 1071.5 64.3594 1255.56 61.4883 1438.02L678.455 1521.68C685.734 1521.56 687.532 1512.45 692.231 1507.8C734.63 1465.83 782.772 1487.4 822.706 1519.55C830.014 1525.43 839.092 1538.88 846.748 1541.99C856.782 1546.06 927.487 1553.92 941.813 1554.47C959.968 1555.17 964.666 1544.26 978.905 1536.43C1032.21 1507.16 1117.76 1485.94 1123.33 1571.44C1234.14 1584.68 1346.38 1596.87 1457.91 1606.74C1565.59 1616.28 1674.84 1625.88 1782.81 1629.96C1786.55 1630.1 1789.51 1631.7 1792.85 1632.95L1792.88 1632.98ZM1644.36 804.251L1592.97 792.088L1572.56 861.694L1668.17 885.09L1644.36 804.251ZM667.696 1551.5L41.5356 1467.41C33.3864 1497.93 29.0652 1528.31 32.9224 1559.83C139.066 1578.39 246.428 1594.89 353.412 1609.27C455.351 1622.97 567.149 1640.23 669.001 1647.62C672.133 1647.85 682.225 1648.58 682.196 1646.02C670.045 1615.52 658.763 1584.94 667.667 1551.5H667.696ZM795.271 1536.9C775.434 1513.85 743.504 1506.84 716.968 1522.4C712.937 1526.54 717.171 1527.7 721.26 1528.2C745.882 1531.08 770.968 1531.34 795.271 1536.9ZM1094.01 1568.94C1090.76 1518.24 1026.7 1544.11 998.336 1557.35L1094.01 1568.94ZM703.744 1555.37C684.69 1586.6 701.54 1632.72 728.627 1654.72C779.088 1656.41 839.12 1684.23 878.04 1638.8L829.869 1573.47L703.744 1555.35V1555.37ZM922.875 1583.51L870.674 1577.69L898.225 1615.49L922.846 1583.54L922.875 1583.51ZM1091.08 1600.97L962.607 1586.86L917.133 1637.32C926.79 1647.45 943.002 1659.03 956.922 1661.36C977.919 1664.88 1028.38 1655.59 1048.39 1646.86C1067.56 1638.51 1084.44 1620.99 1091.08 1600.97ZM1810.31 1664.99L1124.17 1603.97L1118.66 1606.74C1105.47 1656.58 1060.51 1674.63 1015.65 1686.79C1172.43 1703.64 1329.67 1721.88 1486.97 1734.77C1589.26 1743.18 1691.84 1750.37 1794.47 1752.47L1799.02 1750.52C1807.99 1722.99 1811.81 1693.95 1810.28 1664.99H1810.31ZM267.482 2249.84C289.61 2256.97 309.07 2270.01 326.934 2284.5L402.453 2162.66C386.966 2146.1 364.897 2136.56 343.233 2130.79L267.482 2249.84ZM418.258 2421.53C441.72 2428.14 460.02 2444.17 480.378 2456.42L556.071 2345.75C557.811 2342.96 556.709 2340.63 555.404 2338.01C551.112 2329.37 506.769 2299.63 499.461 2303.5L418.258 2421.53ZM757.57 2494.31C780.597 2493.49 803.913 2494.83 825.809 2502.6L828.709 2500.27L844.689 2361.93C823.083 2355.33 800.694 2353.06 778.16 2354.95L757.541 2494.31H757.57ZM1169.35 2366.3C1145.86 2366.07 1122.4 2364.76 1099.81 2372.18L1114.28 2511.77C1136.76 2508.19 1161.64 2501.35 1183.86 2505.92L1169.35 2366.27V2366.3Z" fill="#416A41"/>
<path d="M481.393 993.4C817.108 1009.35 1152.24 1042.46 1483.29 1098.3C1492.08 1101.91 1497.15 1113.15 1497.12 1122.22C1497.09 1163.08 1487.18 1224.8 1482.25 1267.37C1476.82 1314.2 1470.38 1361.19 1462.53 1407.64C1457.65 1419.16 1446.89 1424.66 1434.74 1423.67C1128.72 1401.64 821.604 1376 518.804 1326.91C501.781 1324.15 442.909 1318.39 435.485 1305.76C429.655 1295.83 434.44 1263.82 435.717 1250.29C443.286 1168.96 459.439 1088.09 465.327 1006.47C466.922 997.707 473.447 994.913 481.422 993.371L481.393 993.4ZM1461.92 1127.03C1147.95 1076.33 830.71 1041.65 512.54 1027.68C507.117 1027.45 502.1 1024.33 496.59 1024.77L467.415 1284.98C786.222 1337.97 1108.68 1370.07 1431.47 1391.22L1435.76 1386.6C1446.31 1300.37 1458.78 1213.83 1461.92 1127.03Z" fill="#416A41"/>
<path d="M1632.65 1313.56C1769.01 1292.05 1767.85 1502.68 1640.97 1490.05C1537.64 1479.77 1539.03 1328.31 1632.65 1313.56ZM1647.35 1342.63C1590.68 1345.51 1571.92 1420.06 1619.05 1450.97C1635.17 1461.53 1663.56 1461.53 1679.69 1450.97C1728.96 1418.67 1706.05 1339.66 1647.38 1342.63H1647.35Z" fill="#416A41"/>
<path d="M232.042 1179.78C348.365 1169.1 360.4 1347.14 248.602 1356.48C131.438 1366.26 117.923 1190.26 232.042 1179.78ZM280.938 1226.61C228.533 1174.05 146.605 1253.2 197.734 1308.64C249.791 1365.06 335.199 1281.05 280.938 1226.61Z" fill="#416A41"/>
<path d="M1011.71 1218.58L1012 1223.87C1019.34 1233.62 1053.47 1279.71 1023.4 1277.68C1011.83 1276.89 991.99 1227.31 976.707 1222.8C958.552 1232.86 975.604 1277.36 952.897 1279.25C937.961 1280.5 940.281 1265.48 940.861 1255.24C942.05 1234.44 947.416 1201.76 951.128 1180.63C953.419 1167.56 954.463 1147.75 970.674 1145.42C983.116 1143.64 1006.55 1145.16 1017.95 1150.63C1046.63 1164.39 1041.23 1210.84 1011.71 1218.58ZM1009.45 1175.77C1007.07 1171.46 980.738 1165.61 978.244 1168.15C979.114 1175.83 972.356 1191.57 976.591 1197.8C982.478 1206.44 1018.93 1192.91 1009.45 1175.77Z" fill="#416A41"/>
<path d="M748.494 1120.36C770.738 1117.95 798.985 1135.52 802.552 1158.63C809.309 1202.08 779.641 1274.94 725.496 1249.68C676.108 1226.64 690.231 1126.71 748.465 1120.36H748.494ZM745.739 1149.96C722.509 1154.99 714.795 1214.85 735.763 1226.2C776.132 1248.05 805.51 1137.04 745.739 1149.96Z" fill="#416A41"/>
<path d="M1162.17 1163.95C1196.88 1156.51 1223.82 1187.85 1225.74 1219.97C1227.68 1252.33 1206.57 1292.28 1171.53 1295.51C1156.37 1296.91 1137.89 1295.51 1134.3 1277.91C1142.53 1247.94 1139.98 1206.96 1149.23 1178.36C1151.26 1172.13 1155.29 1165.47 1162.14 1163.98L1162.17 1163.95ZM1161.62 1268.07C1203 1276.28 1215.62 1197.16 1179.45 1186.54C1175.07 1185.26 1176.73 1187.26 1175.91 1189.48C1167.73 1211.74 1167.42 1244.56 1161.62 1268.04V1268.07Z" fill="#416A41"/>
<path d="M1331.91 1199.02C1325.53 1205.01 1295.22 1197.77 1284.72 1201.32L1283.07 1231C1328.22 1237.23 1323.35 1264.9 1277.53 1258.38C1263.15 1306.05 1295.22 1282.59 1314.91 1292.02C1325.5 1297.09 1322.05 1311.14 1311.75 1313C1291.74 1316.61 1245.89 1314.14 1247.28 1286.23C1248.33 1265.31 1255.2 1220.93 1260.36 1200.47C1261.58 1195.62 1263.84 1187.85 1266.68 1183.95C1282.11 1162.85 1350.15 1181.82 1331.91 1198.99V1199.02Z" fill="#416A41"/>
<path d="M830.165 1137.36C848.899 1119.08 863.458 1170.62 873.492 1178.24C877.842 1179.23 899.071 1146.87 906.843 1143.47C916.617 1139.16 927.289 1142.22 925.955 1154.18C924.708 1165.5 915.022 1169.05 909.975 1176.56C904.175 1185.17 888.544 1206.12 885.064 1213.16C879.727 1223.9 879.756 1264.09 872.129 1266.62C838.72 1277.71 860.442 1226.2 858.296 1213.42C851.393 1197.04 833.732 1172.22 829.324 1156.24C827.758 1150.66 825.351 1142.07 830.194 1137.36H830.165Z" fill="#416A41"/>
<path d="M612.221 1196.23C616.658 1201.23 615.643 1219.74 629.157 1216.01C646.21 1211.33 645.311 1138.87 652.126 1122.02C655.2 1114.43 662.363 1109.07 670.599 1113.29C674.341 1115.5 674.66 1118.44 675.124 1122.37C677.908 1146.26 668.714 1213.08 654.272 1232.4C632.376 1261.64 581.624 1233.1 587.773 1201.14C590.064 1189.21 605.55 1188.69 612.221 1196.23Z" fill="#416A41"/>
<path d="M1090.85 1156.1C1110.95 1149.78 1110.37 1173.94 1109.38 1186.68C1107.06 1216.89 1096.91 1247.06 1094.65 1277.44C1093.14 1284.14 1088.62 1286 1082.15 1285.53C1069.59 1284.69 1071.59 1273.08 1072.09 1263.48C1073.42 1237.02 1080.18 1192.94 1084.82 1166.08C1085.43 1162.53 1087.11 1157.23 1090.85 1156.07V1156.1Z" fill="#416A41"/>
</svg>
