<svg width="527" height="256" viewBox="0 0 527 256" fill="none" xmlns="http://www.w3.org/2000/svg">
<g clip-path="url(#clip0_2340_3903)">
<path d="M0.0941162 229.29L4.203 238.314C4.39501 238.733 4.86006 239.45 5.1886 239.672C5.58114 239.936 6.65207 239.732 7.13422 239.492L20.9073 232.803C22.0594 232.244 22.6823 231.459 22.1404 230.157L20.5959 226.443C26.0445 224.019 30.5204 221.445 34.5354 217.406C39.5488 212.369 45.9532 209.778 53.275 209.975C62.6149 210.222 71.541 208.801 79.7417 204.221L84.3796 201.997C81.8879 204.677 79.1656 206.893 77.5827 210.154L73.4013 218.785C70.5852 224.595 66.8219 229.376 61.1258 232.543L46.4524 240.701L44.5793 236.94C44.1612 236.103 42.2411 236.718 41.4048 237.128L27.3715 243.953C26.8765 244.192 26.7571 245.674 27.0045 246.199L30.9982 254.582C31.2158 255.039 31.6681 255.756 32.0095 255.927C32.4233 256.136 33.3535 255.859 33.8783 255.607L47.7154 248.935C48.5986 248.508 49.6567 247.603 49.2301 246.634L47.6258 243.001L61.6549 235.19C67.7179 231.813 72.2748 226.913 75.2317 220.642L78.9224 212.805C80.8638 208.681 83.9743 205.412 87.6437 202.731C87.0336 209.07 87.9253 213.714 93.9713 215.029C94.0011 218.064 95.6183 221.526 98.9719 221.935C113.308 223.686 127.435 224.074 141.908 223.942C142.902 223.933 143.854 222.892 143.892 222.038C144.754 204.233 156.846 189.408 174.237 186.378C196.698 182.25 216.815 198.612 217.682 221.363C217.545 222.029 218.292 224.027 219.333 224.027L409.989 224.074C410.927 224.074 411.917 223.967 412.335 223.656C412.822 223.289 413.129 222.051 413.176 221.214C413.773 210.18 418.625 200.08 427.512 193.323C438.627 184.875 453.595 183.526 466.408 189.921C477.992 195.7 486.048 207.87 486.62 221.543C486.658 222.499 487.452 224.189 488.578 224.185L522.128 224.057C524.568 224.048 526.484 222.059 526.71 219.686C527.111 215.473 527.086 211.315 526.608 207.106C526.326 204.635 524.223 202.85 521.842 202.752L517.801 202.586C517.524 194.885 516.717 187.415 515.092 179.783C516.892 171.996 515.459 164.142 511.764 157.082L508.465 153.116C503.414 138.022 494.923 129.361 479.887 124.094C471.14 121.029 462.423 119.291 453.1 118.041C435.867 115.727 418.761 114.89 401.327 114.408L372.339 68.0119C371.528 66.7143 370.427 65.7666 369.25 65.0025C367.419 64.136 365.589 63.9652 363.686 64.8873C359.893 66.7228 359.786 72.5879 362.346 77.1042L383.437 114.327L376.234 114.378L366.062 108.773C365.371 108.389 364.023 109.397 363.72 110.003C363.383 110.677 363.49 112.333 364.087 112.726L366.63 114.408H357.58L366.233 95.5192C367.048 93.7391 366.451 91.9207 364.701 91.1225C363.263 90.4651 361.331 90.9474 360.528 92.7104L350.647 114.425L321.372 114.395C317.63 102.75 313.918 90.7895 307.318 80.946C305.27 77.8939 302.859 75.5248 299.428 73.5911L299.556 63.8671C306.038 62.3517 310.531 57.9891 313.163 52.1283C316.517 44.6624 315.48 36.1933 312.037 29.0049C314.648 25.7181 316.013 21.3982 313.351 17.6631C312.822 16.9203 311.439 16.0154 310.714 16.2374C310.586 16.2758 310.036 16.9075 310.044 16.9374C309.285 14.6665 307.22 12.8011 304.728 13.4414L296.804 15.4733C295.759 14.5128 294.581 14.0433 293.08 13.9878C289.892 14.6878 287.076 15.708 284.136 17.1765C280.42 16.9118 277.224 19.7846 276.93 23.7886C273.499 26.2218 271.874 30.0678 272.091 34.4261C272.032 36.569 272.428 38.682 273.585 40.4364C273.994 45.3069 275.944 49.392 278.637 53.2851C281.192 56.9817 283.748 60.3838 288.241 62.3602L287.866 71.8964C283.556 73.2026 280.407 75.7553 278.133 79.4306C272.258 88.9198 271.835 102.793 273.414 114.412L235.009 114.434C234.262 108.086 234.245 102.157 235.201 95.7411L245.885 23.8185L250.937 17.1978C252.921 14.5939 257.802 13.5225 256.927 11.29C256.001 8.92088 252.981 12.6432 249.708 13.578L254.491 7.11097C254.773 6.72679 254.807 5.55291 254.546 5.1858C252.814 2.74413 250.356 9.33494 247.037 11.0979L250.992 1.93309C251.184 1.48915 250.604 0.268309 250.182 0.0847571C248.061 -0.828736 246.704 6.0438 243.278 9.48007L244.097 1.68124C244.148 1.17753 243.534 0.268309 243.116 0.148787C242.608 0.00792128 241.516 0.669563 241.409 1.2501L239.408 12.1779L237.287 11.529L235.952 8.06288C235.704 7.42685 234.416 6.74386 233.84 7.0384C233.114 7.40978 232.94 8.64769 233.422 9.42031C234.915 14.5854 235.478 19.6053 235.751 25.0308L222.879 78.3122L219.521 79.6483C222.64 71.8751 224.888 67.1537 225.272 59.5C225.507 54.8087 222.233 49.4428 221 48C216.157 42.3483 208.918 40.9316 202.117 43.9452C197.641 45.9302 194.735 49.7805 192.269 54.1132L185.92 65.2544L167.884 42.4982L165.759 33.6236L164.381 26.8877C164.279 26.3797 163.127 25.701 162.679 25.8675C162.231 26.0339 161.655 26.9517 161.698 27.4682L162.15 32.9321C162.163 33.073 161.702 33.8541 161.561 33.8285L160.934 33.7004C158.446 30.674 156.582 27.1779 154.918 23.5965C154.691 23.1142 153.343 22.5678 152.912 22.8154C152.481 23.0629 152.217 24.1344 152.443 24.6722L155.588 32.232L148.338 26.2431C147.933 25.9101 146.64 25.987 146.324 26.384C145.91 26.9047 146.29 28.1469 146.764 28.6122L151.965 33.709C151.871 33.9608 151.692 34.456 151.692 34.4773L146.734 31.7966C146.277 31.549 145.364 31.5704 144.985 31.7198C144.532 31.8991 144.353 33.4785 144.831 33.7858L150.557 37.4697C150.57 37.5593 150.715 38.4557 150.634 38.0075L146.167 37.4227C145.62 37.3502 144.596 38.0801 144.485 38.5496C143.935 40.8974 148.838 39.8473 152.221 42.0286C155.093 43.8812 157.781 46.1351 159.884 48.867C166.058 56.8921 171.477 65.0025 177.045 73.7618C167.441 79.2769 160.72 75.3882 150.574 84.4591L142.937 91.2932C139.792 94.1062 135.568 95.3442 131.369 95.1905L130.576 95.1606C130.422 95.1563 130.316 95.4936 130.426 95.5875L131.032 96.0869C136.592 100.671 142.075 99.0237 148.035 97.6663L158.6 95.2631C154.154 100.851 147.95 103.267 140.79 104.462C147.306 110.344 156.304 107.962 164.646 106.003C163.362 108.355 161.262 109.772 158.881 110.669L155.033 112.12C159.027 116.184 165.892 110.741 175.18 109.913C182.293 109.281 188.774 107.433 195.392 104.257L199.591 114.391C186.923 114.57 174.668 114.668 161.971 115.791C148.215 117.003 132.142 119.419 121.637 128.593L120.681 128.162L109.242 105.418L112.374 91.9292C113.155 88.5698 112.212 85.0695 110.053 82.551C108.154 80.3356 105.112 79.58 102.62 80.6045C99.9703 81.693 98.5666 84.5999 98.6946 87.8399C96.6252 86.5038 94.2913 85.4153 91.7781 86.1836C90.0117 86.7215 88.3477 88.1429 87.8101 89.3894C84.1535 97.8328 97.8796 103.549 106.396 106.298L118.962 130.962C115.459 134.91 112.882 139.038 110.641 143.909C105.581 154.909 102.488 166.439 100.892 178.485L99.5607 195.047L93.2075 196.178C95.2769 193.207 97.1457 190.693 97.7559 187.312C98.2892 184.367 97.5298 181.114 95.1105 179.364C92.1707 177.238 88.352 178.621 86.5173 181.609C83.9103 185.848 84.2943 190.638 86.6709 195.547C83.4665 195.457 80.3091 194.714 77.0621 193.984L66.92 191.718C60.2895 190.864 54.5294 193.271 49.8146 197.766C43.6662 203.636 39.6853 203.495 31.6638 201.062L32.5983 197.408C32.8031 196.605 32.0308 195.436 31.0665 195.184L14.648 190.924C14.072 191.244 13.3339 192.162 13.2016 192.704L10.7269 202.598C10.5861 203.158 11.1621 204.212 11.5887 204.379L28.1822 208.728C29.3427 208.754 29.923 207.866 30.2132 206.782L31.058 203.649C39.4934 206.146 45.006 205.954 51.308 199.674C55.4467 195.547 60.6437 193.408 66.6214 194.215L79.8398 197.156L85.442 198.168C86.1589 198.249 86.2826 198.479 85.4677 198.603L79.3747 201.719C60.9893 211.119 52.7928 204.554 40.9483 209.8C34.8169 212.515 31.5188 218.115 25.5282 221.201L19.5975 224.258L17.6177 220.634C17.319 220.087 15.8384 220.16 15.3435 220.399L1.78802 226.981C1.09254 227.318 -0.375271 228.249 0.106873 229.307L0.0941162 229.29ZM216.982 83.7718L223.237 81.5521C223.826 81.343 225.114 80.4551 225.272 79.8276L228.912 65.519L238.546 24.8558L237.616 15.1574C238.712 15.6184 240.441 15.755 240.782 15.0976L242.028 12.6986L245.232 14.2951C245.975 14.6665 246.999 16.2075 247.626 16.7283L243.167 23.2038L232.419 95.3826C231.459 101.824 231.497 107.723 232.15 114.429L202.53 114.417L197.679 102.955C205.79 98.4347 212.203 91.9036 216.982 83.7676V83.7718ZM285.489 41.0255C285.779 42.6561 286.5 44.0178 287.571 44.0989C290.955 44.355 288.868 40.3041 290.976 37.7258C292.619 35.7153 292.632 33.6492 292.124 31.2033L301.549 29.0049C303.909 29.8715 305.986 30.0934 308.397 29.9099C312.263 36.5946 312.988 44.577 309.549 51.4709C306.823 56.9348 301.639 60.7125 295.401 60.5332C289.594 60.3668 284.542 56.6317 281.96 51.6843C285.613 48.5639 280.36 44.4575 285.497 41.0297L285.489 41.0255ZM179.289 72.1696C173.354 62.8725 167.773 54.54 161.275 46.1393C159.381 43.6891 156.223 41.7511 154.115 39.7107L155.852 36.2787L158.519 34.9341C159.713 36.5946 161.736 37.8795 163.694 36.5733L165.132 43.2921L184.034 67.5125C182.511 69.4462 181.167 70.8677 179.281 72.1739L179.289 72.1696ZM291.172 71.3671L291.526 63.803L296.147 64.2939L296.015 72.0117L291.172 71.3671ZM388.395 114.429L365.896 74.8418C364.838 72.9807 364.091 70.3853 365.606 68.6821C366.233 67.9778 368.081 69.1303 368.622 69.9969L396.369 114.306L388.395 114.429ZM277.071 114.429C275.372 102.968 275.556 87.7801 283.151 78.9141C287.311 74.7436 293.31 74.0094 298.311 77.181C301.033 78.9055 303.239 81.3344 305.001 84.1176C307.454 87.9935 309.63 91.9079 311.166 96.2662L317.549 114.404L277.066 114.425L277.071 114.429ZM90.9461 89.8717C91.5819 89.2272 93.3867 88.6893 94.4321 89.1119C98.477 90.7425 99.7442 93.9995 101.54 93.53C103.443 93.0348 101.327 89.8077 101.792 86.0129C101.95 84.728 103.32 83.3663 104.314 83.1742C105.538 82.9394 107.151 83.5413 107.928 84.6341C109.455 86.794 109.997 89.654 109.349 92.2451L106.597 103.275L97.1116 99.2628C92.7211 97.4059 88.2709 92.5738 90.9419 89.8675L90.9461 89.8717ZM490.98 202.957C488.629 202.995 487.669 205.002 487.366 206.914C477.792 184.183 450.834 174.989 429.518 187.022C419.926 192.439 413.108 201.664 410.296 212.583L337.206 211.136L267.833 210.547L267.517 137.694C267.487 131.086 268.23 125.028 270.333 118.715L402.381 118.873C419.111 118.894 435.372 120.384 451.833 122.296C460.093 123.257 467.743 124.815 475.594 127.158C489.538 131.32 499.428 138.876 504.019 152.8C502.436 154.307 501.519 155.998 501.229 158.085C500.222 165.346 501.924 172.88 506.14 178.818C507.484 180.709 509.246 181.703 511.576 182.066C512.792 188.853 513.547 195.551 513.82 202.594L490.985 202.966L490.98 202.957ZM107.86 163.656L116.743 164.368C118.859 164.539 121.163 162.891 121.586 160.778L124.504 146.222C125.046 143.529 123.199 141.339 120.813 140.882L117.217 140.195C125.43 125.886 141.554 122.275 157.307 120.606C169.757 119.287 181.781 118.783 194.402 118.775L266.195 118.732C264.356 124.819 263.656 130.518 263.558 136.827L263.733 210.538L219.922 210.572C214.652 192.606 198.131 180.73 179.405 181.618C169.668 181.9 160.857 185.554 153.621 191.995C147.677 197.365 143.85 204.075 141.332 211.61L140.688 206.602C140.419 204.524 138.538 202.902 136.362 202.82L103.67 201.63C103.286 188.708 104.702 176.09 107.855 163.66L107.86 163.656ZM115.766 160.416L108.905 159.626L115.203 143.755L120.766 144.831L118.262 157.901C118.044 159.033 117.413 160.608 115.77 160.42L115.766 160.416ZM508.086 174.967C505.308 169.516 504.058 163.638 505.176 157.743C505.321 157.368 505.88 156.202 506.187 156.416L507.394 157.261C511.529 163.297 513.189 170.81 511.653 178.203C510.006 177.55 509.076 176.41 508.081 174.967H508.086ZM89.9733 195.867C88.369 193.318 87.7248 191.628 87.0592 189.323C86.9696 185.016 88.8255 180.675 92.2176 180.905C92.9942 180.956 94.4278 181.755 94.8289 182.54C96.9665 186.74 93.6513 192.285 89.9733 195.867ZM27.3544 205.382L13.991 201.864L15.9323 194.398L29.4323 197.946L27.3587 205.377L27.3544 205.382ZM94.3766 198.735L99.6247 197.651L99.6802 201.472C97.6023 200.929 96.3564 200.323 94.3766 198.735ZM93.5233 212.186C89.2138 211.255 89.056 204.028 91.2107 199.756L95.695 202.833C94.7905 204.131 93.9969 205.501 93.903 206.777L93.519 212.186H93.5233ZM100.508 218.196C99.2322 218.081 98.1783 216.963 98.0716 216.075C97.6449 212.498 97.534 209.249 98.3404 205.587L136.95 206.901L137.88 219.78C125.366 219.754 113.142 219.344 100.504 218.2L100.508 218.196ZM490.869 220.096L491.147 206.982L522.546 206.726C523.408 211.328 523.459 215.362 522.631 219.882L490.869 220.096ZM221.876 219.767L221.108 214.7L307.761 214.892L369.578 215.515L409.571 216.036L409.007 219.763H221.876V219.767ZM6.6521 236.287L3.48621 229.444L15.8427 223.519L18.9958 230.4L6.65637 236.287H6.6521ZM42.8171 239.702L46.094 246.476L33.3919 252.627L30.115 245.853L42.8171 239.702Z" fill="#0F2A15"/>
<path d="M150.109 221.616C150.109 238.708 163.963 252.568 181.052 252.568C198.14 252.568 211.994 238.712 211.994 221.616C211.994 204.52 198.14 190.664 181.052 190.664C163.963 190.664 150.109 204.52 150.109 221.616ZM167.377 221.753C167.377 214.231 173.474 208.131 180.996 208.131C188.518 208.131 194.616 214.231 194.616 221.753C194.616 229.274 188.518 235.374 180.996 235.374C173.474 235.374 167.377 229.274 167.377 221.753Z" fill="#0F2A15"/>
<path d="M419.465 221.936C419.465 238.925 433.234 252.696 450.215 252.696C467.197 252.696 480.966 238.925 480.966 221.936C480.966 204.946 467.197 191.176 450.215 191.176C433.234 191.176 419.465 204.946 419.465 221.936ZM436.809 222.034C436.809 214.581 442.847 208.541 450.296 208.541C457.746 208.541 463.784 214.581 463.784 222.034C463.784 229.487 457.746 235.527 450.296 235.527C442.847 235.527 436.809 229.487 436.809 222.034Z" fill="#0F2A15"/>
<path d="M281.525 149.762L299.505 149.779C300.354 149.779 301.263 148.392 301.289 147.666C301.314 146.941 300.444 145.374 299.688 145.37L281.717 145.293C280.475 145.289 279.494 146.215 279.323 147.316C279.17 148.311 280.096 149.762 281.529 149.762H281.525Z" fill="#0F2A15"/>
</g>
<defs>
<clipPath id="clip0_2340_3903">
<rect width="527" height="256" fill="white" transform="matrix(-1 0 0 1 527 0)"/>
</clipPath>
</defs>
</svg>
