<svg width="1252" height="2293" viewBox="0 0 1252 2293" fill="none" xmlns="http://www.w3.org/2000/svg">
<path d="M661.135 1039.05C686.16 1040.58 713.672 1042.31 738.152 1047.76C752.216 1050.91 765.64 1057.4 779.466 1060.83C835.791 1074.82 874.335 1082 924.669 1114.23C948.724 1129.63 965.084 1147.12 986.25 1164.91C1019.3 1192.67 1043.52 1208.41 1069.56 1244.67C1103.97 1292.57 1137.14 1338.73 1154.61 1395.91C1167.18 1437.02 1180.39 1493.49 1187.04 1535.9C1204.28 1645.79 1164.55 1753.96 1121.7 1852.55C1095.66 1912.5 1053.94 1963.86 1008.77 2010.19C948.629 2071.88 845.9 2108.03 764.811 2132.7C702.355 2151.7 655.406 2151.86 590.724 2144.02C544.39 2138.4 499.241 2128.4 454.873 2114.32C378.282 2090.01 294.991 2047.08 240.418 1987.16C134.99 1871.46 87.3549 1765.11 81.2939 1606.45C76.0379 1469.01 127.272 1330.01 223.253 1232.1C258.98 1195.67 305.006 1158.41 346.391 1128.31C402.81 1087.27 454.328 1072.64 518.489 1049.77C530.659 1045.43 528.078 1045.5 542.094 1043.8C554.595 1042.28 567.403 1039.78 579.975 1039.09C599.484 1038.03 622.852 1041.29 641.532 1039.14C643.521 1038.9 644.255 1039.02 645.509 1037.23C647.782 1034.01 646.93 1001.43 646.835 994.769C645.273 894.306 642.881 134.031 646.835 33.6625C647.096 26.8106 644.775 5.90056 649.676 2.23835C653.559 -0.667795 657.181 4.05764 657.395 7.69623C657.513 9.79905 656.211 12.209 656.187 14.6662C655.974 112.695 658.318 868.836 659.833 966.416C659.975 975.584 658.318 1036.59 661.088 1038.95L661.135 1039.05ZM653.725 1052.32C647.593 1052.99 641.413 1051 635.637 1050.93C628.439 1050.84 613.997 1051.17 607.249 1052.23C601.97 1053.06 591.837 1065.34 588.333 1069.95C558.975 1108.27 537.596 1156.4 510.487 1196.57C508.214 1200.8 512.547 1201.65 515.672 1202.52C532.529 1207.22 550.972 1209.14 568.137 1211.55C578.531 1213.01 636.915 1221.73 642.147 1218.09L653.725 1052.32ZM394.855 1166.68C424.473 1177.24 454.873 1189.15 485.698 1195.86C488.35 1196.43 493.038 1198.01 495.382 1196.85L585.278 1055.14C583.668 1052.87 581.182 1053.18 578.768 1053.27C534.092 1054.76 513.186 1070.12 478.454 1094.9C452.363 1113.52 423.668 1136.7 400.75 1159C398.406 1161.29 395.991 1163.49 394.855 1166.68ZM656.258 1218.64C680.549 1218.73 704.77 1218.92 728.99 1217.43C749.256 1216.2 772.671 1214.22 792.725 1211.38C795.708 1210.96 804.373 1210.13 805.202 1207.2C805.888 1204.77 790.405 1165.31 788.108 1159.59C783.136 1147.19 777.88 1134.55 772.009 1122.54C761.307 1100.67 747.433 1082.54 734.269 1062.22C715.66 1057.78 695.039 1054.07 675.838 1053.27C673.447 1053.18 667.504 1052.7 666.273 1054.45L656.258 1218.61V1218.64ZM839.342 1089.06C838.135 1087.91 815.169 1081.74 811.476 1080.87C791.991 1076.19 771.89 1074.32 753.281 1066.36C750.771 1069.83 763.864 1084.95 766.066 1088.43C789.434 1125.43 804.018 1164.77 818.91 1205.71C821.751 1208.71 825.681 1205.19 828.688 1204.77C859.206 1200.37 889.108 1192.5 918.821 1184.33C919.461 1182.27 918.656 1180.79 917.803 1179.01C913.092 1169.09 880.277 1124.34 872.157 1117.16C862.189 1108.32 850.801 1104.07 841.473 1093.44C840.408 1092.23 840.242 1089.89 839.366 1089.06H839.342ZM488.303 1072.24C486.314 1071.98 484.491 1072.53 482.621 1073.05C443.532 1083.94 390.167 1110.54 357.826 1135.02C354.63 1137.43 345.846 1142.46 348.072 1146.62C349.682 1149.65 377.785 1162.99 383.017 1160.16C410.102 1135.35 437.613 1110.19 467.113 1088.26C472.7 1084.1 480.774 1080.51 485.604 1076.02C486.859 1074.86 488.918 1074.82 488.303 1072.24ZM963.64 1160.94C937.194 1140.86 911.222 1118.48 879.828 1106.48L933.074 1177.95C933.903 1178.68 934.755 1178.47 935.75 1178.33C937.265 1178.12 952.441 1171.26 954.738 1170.01C957.389 1168.57 965.699 1164.51 963.64 1160.94ZM240.773 1361.18C250.125 1342.84 258.862 1323.99 268.853 1305.99C296.175 1256.82 332.635 1213.58 369.948 1172.14C369.593 1169.99 351.055 1162 347.503 1160.23C337.82 1155.32 338.246 1150.26 327.521 1157.94C284.431 1188.8 232.629 1235.79 199.72 1277.14C189.729 1289.68 179.879 1303.34 172.327 1317.23C172.327 1321.37 186.343 1331.95 190.297 1334.83C204.479 1345.18 220.72 1352.39 235.494 1361.79L240.75 1361.2L240.773 1361.18ZM978.934 1175.26C977.277 1174.31 973.915 1174.93 972.044 1175.52C969.251 1176.39 948.511 1187.4 945.693 1189.34C944.557 1190.12 943.373 1190.85 942.663 1192.08C959.757 1223.22 980.118 1252.85 997.141 1283.99C1005.45 1299.16 1015.54 1318.82 1022 1334.74C1023.61 1338.71 1027.47 1354.78 1029.17 1356.5C1030.24 1357.61 1032.16 1357.82 1033.62 1357.47C1037.74 1356.45 1047.07 1351.47 1051.62 1349.39C1068.55 1341.62 1084.79 1332.19 1101.12 1323.26C1105.86 1319.62 1101.93 1315.3 1099.63 1311.61C1086.68 1290.6 1065.59 1261.17 1050.15 1241.74C1030.67 1217.22 1011.61 1201.88 986.913 1183.27C984.948 1181.8 979.763 1175.8 978.934 1175.33V1175.26ZM487.119 1209.21C451.937 1202.62 419.17 1188.25 385.692 1176.32C384.698 1175.94 383.964 1176.3 383.088 1176.7C381.502 1177.41 368.243 1191.3 365.876 1193.85C322.597 1240.23 279.696 1301.78 254.458 1360.09C253.345 1362.67 251.143 1365.93 252.28 1368.55C253.416 1371.17 267.882 1377.2 271.599 1378.88C303.585 1393.38 342.863 1406.54 376.885 1415.47C380.531 1416.44 397.933 1421.24 399.661 1420.03C401.886 1418.47 413.085 1375.24 415.334 1368.34C430.581 1321.56 450.114 1276.22 473.932 1233.21C475.755 1229.93 488.326 1210.89 487.143 1209.23L487.119 1209.21ZM1018.09 1363.71C1019.06 1362.22 1015.13 1348.61 1014.09 1346.13C1012.32 1341.92 1008.15 1337.43 1005.95 1332.99C999.177 1319.31 993.045 1305.16 985.729 1291.79C968.138 1259.7 947.493 1228.7 929.499 1196.76L825.539 1219.91C824.924 1220.64 825.373 1224.71 825.681 1226.03C831.671 1251.01 847.179 1277.56 849.902 1304.57L867.54 1411.17L871.849 1412C922.065 1400.54 970.719 1383.6 1018.07 1363.71H1018.09ZM634.808 1441.61L641.555 1233.9C639.898 1231.51 607.747 1230.97 602.467 1230.43C576.755 1227.8 550.309 1223.05 524.929 1218.09C517.163 1216.58 509.043 1213.63 501.324 1213.27C497.726 1215.21 478.17 1252.42 474.831 1258.94C448.48 1310.4 426.675 1366.31 414.293 1422.92C415.121 1424.33 416.494 1424.74 417.939 1425.26C423.976 1427.45 438.371 1429.7 445.402 1430.9C495.855 1439.53 548.96 1442.6 600.028 1443.05C611.724 1443.14 623.159 1442.39 634.808 1441.65V1441.61ZM649.155 1441.77C718.028 1441.42 786.451 1430.19 853.263 1414.67C855.536 1410.06 852.316 1405.86 851.725 1401.91C844.432 1354.21 839.413 1306.41 824.261 1260.48C822.485 1255.12 811.807 1224.05 808.919 1222.77L753.826 1229.22C724.16 1233.69 689.238 1229.48 660.378 1232.74C658.555 1232.95 655.429 1233.47 654.482 1235.1C652.967 1237.68 654.104 1254.6 653.891 1259.3C652.659 1288.34 651.144 1317.49 650.339 1346.67C650.268 1348.96 648.99 1351.33 649.108 1353.71L649.155 1441.77ZM164.987 1329.73C162.644 1330.35 147.657 1359.95 145.431 1364.63C128.195 1400.52 111.386 1447.25 104.188 1486.38C102.507 1495.55 100.4 1498.08 108.213 1504.15C117.376 1511.28 132.86 1520.31 143.301 1525.81C158.287 1533.73 174.363 1539.45 189.658 1546.7C190.77 1546.63 192.025 1543.68 192.309 1542.47C195.861 1528.06 196.097 1508.8 198.796 1493.47C200.785 1482.27 203.674 1469.65 206.373 1458.52C213.239 1430.05 222.922 1402.27 233.623 1375.07L165.011 1329.76L164.987 1329.73ZM1066.79 1539.71C1068.07 1540.79 1077.02 1537.06 1079.18 1536.23C1100.18 1528.34 1132.14 1514.59 1150.63 1502.47C1153.54 1500.56 1162.07 1494.72 1162.56 1491.88C1163.39 1487.21 1156.45 1459.28 1154.92 1452.33C1147.67 1419.35 1139.12 1386.86 1124.54 1356.34C1122.72 1352.51 1114.88 1335.26 1112.04 1334.48C1110.1 1333.94 1108.96 1334.65 1107.28 1335.21C1098.95 1338.1 1082.92 1349.01 1073.71 1353.64C1061.78 1359.64 1049.53 1365.1 1037.25 1370.37C1034.05 1372.14 1034.64 1375.21 1035.09 1378.26C1038.6 1402.79 1050.62 1432.25 1055.76 1458C1060.9 1483.76 1063.57 1512.35 1066.82 1539.66L1066.79 1539.71ZM1021.2 1376.87C985.918 1392.37 949.41 1405.29 912.311 1415.73C900.496 1419.07 885.155 1421.1 874.122 1424.83C865.93 1427.6 871.896 1436.24 872.63 1442.48C874.927 1461.97 876.489 1481.73 877.484 1501.38C883.616 1530.11 877.626 1564.14 880.964 1592.37C881.864 1599.96 889.842 1595.94 895.24 1594.69C940.153 1584.36 996.336 1567.14 1039.52 1550.95C1042.62 1549.79 1051.1 1546.94 1052.45 1544.93L1053.58 1541.57C1050.67 1490.07 1039.66 1439.36 1025.95 1389.79C1025.34 1387.57 1022.73 1376.96 1021.22 1376.84L1021.2 1376.87ZM247.758 1380.51C243.733 1381.19 237.909 1399.03 236.299 1403.35C221.407 1443.69 206.775 1503.51 204.384 1546.3C204.289 1548.09 204.052 1549.91 204.999 1551.59C205.875 1553.06 226.852 1560.29 230.474 1561.56C271.528 1575.93 331.996 1597.81 374.281 1602.27C376.08 1602.46 377.879 1602.67 379.56 1601.82C380.768 1600.97 380.555 1599.53 380.72 1598.25C382.33 1585.14 380.862 1567.33 381.857 1553.34C383.443 1531.01 386.284 1506.08 389.102 1483.83C391.067 1468.3 394.452 1452.85 396.844 1437.38L394.002 1432.56C343.502 1420.65 294.209 1403.47 247.758 1380.48V1380.51ZM850.044 1430.26C832.973 1431.3 810.15 1438.42 792.535 1441.42C752.429 1448.27 712.914 1452.9 672.287 1454.79C667.457 1455.03 652.446 1453.54 649.724 1455.9C647.001 1458.26 649.44 1461.9 649.203 1464.71C645.107 1512.84 643.615 1579.87 649.108 1627.76C649.25 1629.04 649.084 1630.48 650.268 1631.31C667.504 1633.2 684.693 1629.8 701.81 1628.28C745.302 1624.46 789.765 1619.9 832.311 1609.78C841.568 1607.59 856.081 1604.78 864.462 1601.73C872.843 1598.68 868.084 1591.31 867.942 1585.24C866.877 1539.97 864.557 1496.49 858.661 1451.65C857.525 1443.02 860.816 1429.58 850.02 1430.24L850.044 1430.26ZM413.298 1437.33C410.291 1437.9 408.989 1443.83 408.374 1446.45C399.756 1482.84 398.098 1525.44 395.991 1562.79C395.589 1570.04 390.854 1601.37 394.784 1605.34C396.015 1606.57 407.119 1608.58 409.936 1609.1C457.951 1618.08 506.438 1624.39 555.068 1628.36C578.46 1630.27 609.001 1634.71 632.014 1631.95C633.293 1631.8 634.737 1631.99 635.589 1630.79L634.453 1457.06C633.411 1456.11 632.156 1456.09 630.854 1455.95C611.819 1453.61 585.799 1456.66 565.699 1456.04C535.062 1455.12 504.094 1451.86 473.576 1448.81L413.275 1437.38L413.298 1437.33ZM1053.73 1735.74C1095.68 1718.59 1134.25 1693.85 1168.96 1664.81C1177.27 1622.99 1180.34 1575.83 1172.91 1533.54C1172.25 1529.74 1169.33 1516.46 1168.15 1513.5C1167.39 1511.59 1165.78 1510.43 1164.31 1509.13C1135.08 1529.78 1099.49 1540.82 1067.32 1556.27C1067.48 1580.42 1068.66 1604.75 1067.98 1628.95C1067.39 1650.14 1066.3 1672.51 1062.89 1693.52C1060.59 1707.67 1055.88 1721.54 1053.73 1735.72V1735.74ZM199.649 1730.99L190.226 1652.5C188.639 1622.31 189.729 1592.35 189.634 1562.2C175.121 1554.07 158.998 1548.28 144.224 1540.23C129.308 1532.1 116.05 1521.56 100.945 1513.81C99.6426 1514.59 99.4532 1515.42 99.1691 1516.81C96.9909 1527.7 97.346 1537.79 96.7541 1548.64C94.4102 1591.64 95.0968 1634.85 101.229 1677.59C102.01 1679.13 102.602 1680.78 103.928 1681.99C127.248 1703.35 168.113 1715.09 195.316 1731.37L199.672 1731.02L199.649 1730.99ZM1036.89 1744.91C1040.49 1731.06 1044.8 1717.03 1047.48 1702.95C1052.12 1678.54 1054.15 1650.3 1054.96 1625.4C1055.48 1609.03 1056.85 1581.67 1054.96 1566.26C1054.58 1563.12 1053.54 1561.42 1050.08 1561.61L882.101 1613.47L879.804 1722.16L871.541 1795.92C873.246 1796.3 874.43 1796.91 876.3 1796.63C885.699 1795.23 898.887 1788.97 908.428 1786.14C931.133 1779.38 953.151 1772.01 975.643 1764.68C996.004 1758.07 1017.27 1753.77 1036.87 1744.91H1036.89ZM216.553 1741.32C263.81 1764.21 313.884 1782.38 364.739 1795.9C373.286 1798.16 389.031 1803.13 396.938 1803.98C400.395 1804.35 402.029 1804.28 401.863 1800.27C401.555 1792.42 397.696 1780.82 396.346 1772.62C389.788 1732.98 385.266 1692.5 381.833 1652.53C380.886 1641.35 381.833 1629.04 379.584 1618.17C377.808 1615.93 332.162 1607.42 324.798 1605.55C290.563 1596.86 255.097 1584.15 221.501 1572.88C217.832 1571.65 205.781 1565.51 203.129 1567.42C201.945 1568.37 202.135 1569.69 201.969 1570.99C200.217 1585.28 201.401 1611.41 201.969 1626.58C202.987 1654.23 206.231 1686.38 210.445 1713.74C211.179 1718.52 214.446 1739.28 216.553 1741.29V1741.32ZM867.871 1616.64C865.433 1615.1 818.697 1626.68 811.523 1628C758.348 1637.83 704.438 1642.84 650.529 1646.17L655.051 1826.07L658.176 1827.46C715.802 1826.16 772.908 1819.26 829.233 1807.43C833.636 1806.5 855.323 1802.13 857.075 1800.38C859.751 1796.04 857.951 1790.67 858.567 1785.92C864.344 1739.92 866.64 1694.11 867.966 1647.73C868.108 1642.86 871.304 1618.81 867.871 1616.64ZM640.727 1826.47L636.228 1646.52C556.394 1645.32 476.938 1635.92 398.738 1620.42C397.246 1620.32 394.949 1621.2 394.216 1622.4C392.416 1625.33 398.88 1664.43 397.222 1671.38C403.354 1713.39 405.083 1758.42 415.5 1799.53C417.441 1807.24 417.939 1808.44 425.775 1810.52C482.36 1825.64 560.845 1825.17 620.224 1826.59C626.687 1826.75 634.003 1829.82 640.703 1826.47H640.727ZM1163.27 1683.9L1113.22 1718.99L1049.11 1752.99C1032.35 1805.49 1017.93 1858.91 996.951 1909.9C993.992 1917.06 989.612 1924.71 986.889 1931.73C986.345 1933.17 984.285 1938.44 986.889 1938.79C1018.38 1926.03 1050.96 1914.95 1078.42 1894.4C1099.16 1878.9 1105.74 1851.37 1115.57 1828.76C1135.83 1782.14 1157.43 1736.33 1166 1685.65L1163.25 1683.88L1163.27 1683.9ZM202.892 1750.22C178.127 1736.26 151.232 1726.34 126.301 1712.73C123.602 1711.26 107.361 1700.32 106.224 1701.48C113.422 1755.07 132.978 1808.54 159.234 1855.74C173.582 1881.52 177.914 1888.51 204.36 1902.78C216.624 1909.4 235.423 1919.3 248.16 1924C249.486 1924.5 255.926 1926.29 256.423 1925.77C256.754 1924.05 256.257 1922.73 255.736 1921.14C250.575 1905.19 241.531 1888.02 235.778 1871.41C226.947 1845.99 219.702 1819.71 213.215 1793.58C211.558 1786.85 205.426 1752.66 202.892 1750.18V1750.22ZM449.262 1978.91L404.988 1819.5C342.887 1804.64 281.519 1786.33 223.419 1759.82C222.188 1759.2 221.123 1759.3 220.365 1760.5C219.11 1762.46 224.177 1782.5 225.124 1786.52C237.317 1837.29 255.973 1887.29 276.902 1934.94C322.691 1952.21 369.83 1966.89 418.27 1975.08C422.721 1975.84 448.007 1980.68 449.285 1978.91H449.262ZM965.865 1945.57C994.3 1887.19 1013.52 1825.12 1031.97 1762.98L1030.55 1760.6L869.955 1811.58C865.243 1853.69 856.838 1895.3 847.345 1936.5C844.48 1948.93 838.395 1964.64 836.572 1976.57C836.288 1978.37 836.762 1979.62 837.33 1981.25C881.248 1974.02 924.551 1961.69 965.865 1945.57ZM655.24 1840.98L664.474 1993.77L719.591 1994.34C743.029 1992.14 766.871 1992.17 790.357 1989.43C797.176 1988.62 810.292 1987.39 816.258 1985.76C817.987 1985.29 819.478 1984.44 820.757 1983.16C825.871 1964.24 831.316 1945.22 835.743 1926.1C842.87 1895.51 850.044 1863.14 853.642 1831.81C853.997 1828.74 855.82 1816.73 853.855 1815.34C851.417 1813.59 818.555 1821.65 812.636 1822.76C781.266 1828.57 746.51 1834.81 714.784 1837.27C706.995 1837.88 656.921 1838.26 655.216 1841L655.24 1840.98ZM422.058 1823.09L422.342 1829.3C437.329 1879.98 446.042 1932.79 465.858 1981.87C467.066 1982.9 468.486 1983.33 470.049 1983.59C507.835 1989.78 547.729 1991.62 585.941 1993.06C603.627 1993.73 627.824 1996.44 645.083 1994.34C646.385 1994.17 647.735 1994.39 648.658 1993.18C649.7 1991.67 649.321 1972.56 649.226 1968.85C648.327 1934.71 644.041 1900.42 642.029 1866.23C641.745 1861.51 643.284 1843.41 640.916 1841.38C639.78 1840.41 636.086 1839.79 634.405 1839.63C618.922 1838.05 601.473 1839.09 585.87 1838.5C535.63 1836.56 481.745 1835 432.452 1825.15C429.303 1824.51 426.201 1821.86 422.082 1823.09H422.058ZM319.14 2034.44C319.803 2032 318.311 2031.22 317.412 2029.66C301.075 2001.55 278.962 1975.58 266.462 1944.75L198.489 1912.85L199.601 1918.21C227.894 1949.73 252.753 1984.63 285.449 2011.97C292.552 2017.92 305.455 2028.48 313.292 2032.59C315.21 2033.61 316.678 2034.93 319.116 2034.44H319.14ZM1029.6 1967.88C1038.81 1957.79 1051.33 1944.98 1058.93 1933.97C1060.47 1931.73 1067.08 1921.99 1065.54 1919.91C1036.94 1934.52 1006.78 1945.46 976.874 1957.15L972.826 1962.54L930.683 2047.97L933.477 2049.63C948.463 2039.63 964.16 2030.32 978.247 2019.01C995.625 2005.04 1014.38 1984.54 1029.6 1967.85V1967.88ZM514.322 2115.88C514.512 2114.18 514.417 2112.78 513.683 2111.2C510.889 2105.08 503.337 2096.15 499.691 2089.75C482.313 2059.17 469.102 2026.24 454.636 1994.22C448.504 1990.94 440.904 1991.72 434.606 1990.61C400.513 1984.53 368.622 1977.94 335.429 1967.97C319.211 1963.11 303.159 1957.36 287.201 1951.79C285.544 1953.63 290.303 1962.28 291.487 1964.62C297.477 1976.5 306.971 1990.65 314.381 2002C322.857 2014.94 343.408 2046.96 354.346 2055.7C363.248 2062.84 407.285 2083.58 419.501 2088.35C440.288 2096.48 467.776 2104.63 489.487 2110.59C492.967 2111.53 513.139 2117.08 514.346 2115.88H514.322ZM955.542 1965.96L833.044 1996.58C828.546 1999.37 826.415 2015.56 824.616 2021.23C822.201 2028.84 819.644 2036.7 816.85 2044.17C809.44 2063.97 794.785 2085.99 789.055 2104.96C788.558 2106.62 788.7 2108.32 788.771 2109.97C810.908 2103.24 833.778 2097.02 855.323 2088.45C864.296 2084.88 894.98 2071.88 901.041 2066.78C905.019 2063.45 913.755 2049.7 916.714 2044.64C931.062 2020.19 943.018 1991.46 955.542 1965.94V1965.96ZM532.505 2114.27C534.518 2116.61 536.885 2118.88 538.779 2121.57C575.95 2128.71 613.76 2133.48 651.618 2135.44C653.441 2134.14 652.872 2107.82 652.778 2103.43C652.304 2081.57 651.168 2059.24 650.315 2037.41C650.079 2031.62 651.783 2011.54 648.611 2008.4C647.427 2007.24 646.551 2007.36 645.107 2007.17C632.44 2005.68 615.749 2007.71 602.396 2007.29C564.302 2006.06 528.907 2001.43 491.239 1997.79C484.822 1997.18 478.17 1996.94 471.73 1996.61C470.735 1997.53 480.277 2018.84 481.508 2021.68C493.961 2050.22 512.452 2090.83 532.505 2114.22V2114.27ZM812.068 1999.21C809.606 1999.89 807.143 2000.96 804.586 2001.24C772.6 2004.97 741.064 2006.56 708.936 2007.31C702.071 2007.48 667.836 2006.08 665.018 2008.33C661.301 2011.26 664.497 2018.09 664.592 2021.96C665.302 2052.13 665.208 2080.23 666.96 2110.52C667.267 2115.83 665.468 2131.66 668.664 2134.8C670.582 2136.72 678.561 2136.13 681.686 2135.94C705.314 2134.54 731.973 2128.66 754.417 2121.17C766.137 2117.27 767.865 2116.33 773.997 2105.29C782.97 2089.09 795.921 2061.39 802.574 2044.1C805.723 2035.95 813.346 2014.16 814.483 2006.39C814.743 2004.59 815.169 2002.75 814.601 2000.96L812.068 1999.21Z" fill="#416A41"/>
<path d="M133.933 1957.24C139.449 1963.62 159.716 1977.68 158.106 1986.35C156.733 1993.75 137.153 2003.91 131.021 2010.19C114.708 2026.97 97.5909 2075.92 92.3112 2099.06C91.2931 2103.52 92.9978 2113.68 87.3156 2116.49C75.5488 2122.33 74.3177 2097.73 72.7787 2092.01C63.782 2058.51 48.961 2023.05 17.1172 2005.89C11.5061 2002.87 -7.05568 1998.85 5.75286 1989.05C14.4182 1982.41 20.858 1979.9 28.7656 1970.69C43.4919 1953.54 59.8518 1906.28 65.6997 1883.58C69.7009 1868.05 70.2454 1846.69 74.8622 1832.52C76.2827 1828.12 79.6684 1824.22 84.6166 1826.33C91.6956 1829.33 91.956 1853.31 93.5897 1861.13C98.2064 1883.27 119.633 1940.66 133.933 1957.24ZM128.18 1970.03C118.875 1959.99 113.24 1950.79 107.203 1938.44C97.3068 1918.17 90.6776 1896.29 83.1724 1875.07C79.0291 1879.65 79.1001 1887.12 77.2298 1892.74C72.9208 1905.78 67.4044 1920.48 62.172 1933.19C52.5834 1956.44 42.4739 1976.57 22.2785 1992.52C56.0164 2010.26 70.5532 2042.92 83.1724 2076.92C87.6944 2072.9 87.3393 2066.43 89.0913 2061.58C96.5728 2041.05 108.671 2012.93 124.557 1997.81C127.02 1995.45 139.994 1986.52 140.444 1985.24C142.006 1980.59 131.352 1973.43 128.204 1970.03H128.18Z" fill="#416A41"/>
<path d="M1052.9 1112C1049.89 1109.85 1047.76 1104.63 1050.08 1101.09C1051.1 1099.55 1065.54 1092.77 1069.35 1089.91C1094.74 1070.73 1113.18 1028.58 1121.02 998.334C1122.48 992.64 1126.27 965.846 1129.66 963.885L1136.52 964.216C1140.26 966.39 1138.51 979.597 1139.03 984.134C1142.68 1016.74 1156.51 1066.12 1179.66 1089.98C1184.49 1094.97 1197.7 1102.22 1198.74 1108.79C1199.78 1115.36 1183.35 1124.57 1178.55 1128.94C1164.74 1141.49 1133.63 1186.34 1128.24 1203.87C1125.68 1212.11 1122.84 1242.14 1112.28 1242.17C1100.58 1238.6 1104.49 1221.66 1103.26 1212.3C1099.94 1186.85 1085.03 1133.69 1064.41 1117.67C1060.43 1114.6 1055.58 1113.92 1052.92 1112.03L1052.9 1112ZM1127.19 1013.34C1120.57 1037.96 1107.85 1065.67 1090.43 1084.67C1083.8 1091.9 1076.17 1096.88 1069.14 1103.52C1096.08 1126.18 1106.62 1160.7 1112.87 1194.16L1115.85 1196.16C1133 1165.66 1152.01 1131.99 1180.23 1110.49C1180.87 1107.87 1169.86 1099.34 1167.35 1096.41C1152.13 1078.74 1143.89 1061.23 1137.4 1038.93C1134.96 1030.49 1133.09 1021.98 1131.69 1013.34H1127.19Z" fill="#416A41"/>
<path d="M219.446 2031.06C231.307 2027.7 227.614 2054.92 228.087 2060.99C229.697 2081.31 233.39 2100.54 244.613 2117.7C247.691 2122.4 257.942 2132.94 257.658 2137.64C257.256 2143.9 247.193 2147.75 242.908 2151.32C229.981 2162.09 218.759 2174.45 214.213 2191.15C211.727 2200.27 214.095 2222.86 199.747 2216.79C193.237 2195.74 193.497 2168.8 173.704 2154.2C169.206 2150.89 158.646 2148.91 159.451 2141.28C159.759 2138.42 171.952 2128.07 174.817 2124.67C191.556 2104.92 204.814 2075.62 212.13 2050.93C213.527 2046.25 214.213 2032.47 219.469 2031.01L219.446 2031.06ZM216.226 2079.3C214.403 2077.6 214.213 2079.8 213.621 2080.82C208.176 2090.29 204.459 2100.71 198.279 2110.35C192.1 2119.99 183.435 2128.94 177.161 2138.96L177.35 2140.52C189.922 2148.25 199.44 2160.58 203.228 2174.9C205.95 2176.91 211.325 2164.83 212.887 2162.71C217.267 2156.73 222.665 2151.06 228.04 2145.96C230.597 2143.52 239.499 2138.51 239.499 2135.35C231.946 2123.68 224.417 2111.6 220.345 2098.21C219.422 2095.18 216.936 2079.94 216.226 2079.28V2079.3Z" fill="#416A41"/>
<path d="M1229.29 1235.88C1233.69 1240.75 1246.9 1248.69 1248.96 1252.21C1254.38 1261.47 1236.63 1269.91 1231.13 1275.86C1219.84 1288.1 1215.65 1307.03 1213.42 1323.14C1212.55 1329.54 1215.08 1349.56 1203.62 1347.1C1196.12 1345.49 1196.61 1333.42 1195.34 1328.17C1191.97 1314.28 1184.3 1289.97 1168.51 1285.29C1161.86 1283.33 1151.51 1288.08 1148.93 1279.93C1146.61 1272.55 1162.45 1262.7 1167.3 1257.03C1178.12 1244.41 1185.77 1219.72 1190.6 1203.54C1192.68 1196.59 1193.77 1184.87 1195.97 1179.39C1199.6 1170.34 1206.72 1176.91 1208.93 1183.53C1215.72 1203.82 1212.86 1217.72 1229.26 1235.86L1229.29 1235.88ZM1218.66 1244.11C1210.84 1234.87 1204.64 1224.31 1201.02 1212.73C1192.57 1227.85 1189.87 1245.31 1179.64 1259.87C1176.58 1264.21 1170.29 1266.25 1172.16 1272.81C1184.85 1276.5 1195.41 1289.28 1200.45 1301.26C1200.73 1301.47 1204.02 1299.56 1204.52 1298.85C1206.06 1296.61 1208.81 1285.69 1210.87 1281.58C1215.89 1271.59 1223.25 1264.8 1230.97 1257.01C1230.97 1255.07 1220.62 1246.38 1218.68 1244.08L1218.66 1244.11Z" fill="#416A41"/>
<path d="M60.9095 2135.04C62.2354 2134.85 63.7743 2135.77 64.7923 2136.58C68.8172 2139.79 72.3922 2163.46 74.6178 2170.46C77.7666 2180.38 83.3541 2193.04 90.2437 2200.91C94.6 2205.87 105.088 2211.19 105.112 2218.02C105.112 2226.34 89.202 2228.27 82.6675 2233.45C74.4994 2239.92 66.6627 2263.38 63.94 2273.78C62.6379 2278.76 63.5849 2296.27 52.3389 2289.51C47.4144 2286.56 46.1122 2264.78 43.9341 2257.78C39.9092 2244.86 31.3149 2233.59 20.9923 2225.18C18.0092 2222.74 9.91209 2220.41 9.72268 2215.68C9.46225 2209.7 19.6428 2205.07 23.4546 2201.5C35.3161 2190.42 45.8518 2173.77 51.2262 2158.38C53.2386 2152.62 53.8305 2144.02 55.6062 2139.15C56.056 2137.95 59.8678 2135.21 60.9332 2135.04H60.9095ZM71.1611 2224.94C74.7598 2221.3 80.9392 2218.96 84.9167 2215.66C73.2682 2203.3 65.1712 2188.15 61.8802 2171.38L58.4236 2170.29C50.658 2186.22 41.6375 2200.13 28.4265 2212.09C34.8426 2219.46 42.0637 2225.53 47.5801 2234.06C51.1551 2239.57 52.6704 2245.88 57.1451 2250.46C61.3357 2242.54 64.745 2231.44 71.1611 2224.94Z" fill="#416A41"/>
<path d="M661.135 1039.05C686.16 1040.58 713.672 1042.31 738.152 1047.76C752.216 1050.91 765.64 1057.4 779.466 1060.83C835.791 1074.82 874.335 1082 924.669 1114.23C948.724 1129.63 965.084 1147.12 986.25 1164.91C1019.3 1192.67 1043.52 1208.41 1069.56 1244.67C1103.97 1292.57 1137.14 1338.73 1154.61 1395.91C1167.18 1437.02 1180.39 1493.49 1187.04 1535.9C1204.28 1645.79 1164.55 1753.96 1121.7 1852.55C1095.66 1912.5 1053.94 1963.86 1008.77 2010.19C948.629 2071.88 845.9 2108.03 764.811 2132.7C702.355 2151.7 655.406 2151.86 590.724 2144.02C544.39 2138.4 499.241 2128.4 454.873 2114.32C378.282 2090.01 294.991 2047.08 240.418 1987.16C134.99 1871.46 87.3549 1765.11 81.2939 1606.45C76.0379 1469.01 127.272 1330.01 223.253 1232.1C258.98 1195.67 305.006 1158.41 346.391 1128.31C402.81 1087.27 454.328 1072.64 518.489 1049.77C530.659 1045.43 528.078 1045.5 542.094 1043.8C554.595 1042.28 567.403 1039.78 579.975 1039.09C599.484 1038.03 622.852 1041.29 641.532 1039.14C643.521 1038.9 644.255 1039.02 645.509 1037.23C647.782 1034.01 646.93 1001.43 646.835 994.769C645.273 894.306 642.881 134.031 646.835 33.6625C647.096 26.8106 644.775 5.90056 649.676 2.23835C653.559 -0.667795 657.181 4.05764 657.395 7.69623C657.513 9.79905 656.211 12.209 656.187 14.6662C655.974 112.695 658.318 868.836 659.833 966.416C659.975 975.584 658.318 1036.59 661.088 1038.95L661.135 1039.05ZM653.725 1052.32C647.593 1052.99 641.413 1051 635.637 1050.93C628.439 1050.84 613.997 1051.17 607.249 1052.23C601.97 1053.06 591.837 1065.34 588.333 1069.95C558.975 1108.27 537.596 1156.4 510.487 1196.57C508.214 1200.8 512.547 1201.65 515.672 1202.52C532.529 1207.22 550.972 1209.14 568.137 1211.55C578.531 1213.01 636.915 1221.73 642.147 1218.09L653.725 1052.32ZM394.855 1166.68C424.473 1177.24 454.873 1189.15 485.698 1195.86C488.35 1196.43 493.038 1198.01 495.382 1196.85L585.278 1055.14C583.668 1052.87 581.182 1053.18 578.768 1053.27C534.092 1054.76 513.186 1070.12 478.454 1094.9C452.363 1113.52 423.668 1136.7 400.75 1159C398.406 1161.29 395.991 1163.49 394.855 1166.68ZM656.258 1218.64C680.549 1218.73 704.77 1218.92 728.99 1217.43C749.256 1216.2 772.671 1214.22 792.725 1211.38C795.708 1210.96 804.373 1210.13 805.202 1207.2C805.888 1204.77 790.405 1165.31 788.108 1159.59C783.136 1147.19 777.88 1134.55 772.009 1122.54C761.307 1100.67 747.433 1082.54 734.269 1062.22C715.66 1057.78 695.039 1054.07 675.838 1053.27C673.447 1053.18 667.504 1052.7 666.273 1054.45L656.258 1218.61V1218.64ZM839.342 1089.06C838.135 1087.91 815.169 1081.74 811.476 1080.87C791.991 1076.19 771.89 1074.32 753.281 1066.36C750.771 1069.83 763.864 1084.95 766.066 1088.43C789.434 1125.43 804.018 1164.77 818.91 1205.71C821.751 1208.71 825.681 1205.19 828.688 1204.77C859.206 1200.37 889.108 1192.5 918.821 1184.33C919.461 1182.27 918.656 1180.79 917.803 1179.01C913.092 1169.09 880.277 1124.34 872.157 1117.16C862.189 1108.32 850.801 1104.07 841.473 1093.44C840.408 1092.23 840.242 1089.89 839.366 1089.06H839.342ZM488.303 1072.24C486.314 1071.98 484.491 1072.53 482.621 1073.05C443.532 1083.94 390.167 1110.54 357.826 1135.02C354.63 1137.43 345.846 1142.46 348.072 1146.62C349.682 1149.65 377.785 1162.99 383.017 1160.16C410.102 1135.35 437.613 1110.19 467.113 1088.26C472.7 1084.1 480.774 1080.51 485.604 1076.02C486.859 1074.86 488.918 1074.82 488.303 1072.24ZM963.64 1160.94C937.194 1140.86 911.222 1118.48 879.828 1106.48L933.074 1177.95C933.903 1178.68 934.755 1178.47 935.75 1178.33C937.265 1178.12 952.441 1171.26 954.738 1170.01C957.389 1168.57 965.699 1164.51 963.64 1160.94ZM240.773 1361.18C250.125 1342.84 258.862 1323.99 268.853 1305.99C296.175 1256.82 332.635 1213.58 369.948 1172.14C369.593 1169.99 351.055 1162 347.503 1160.23C337.82 1155.32 338.246 1150.26 327.521 1157.94C284.431 1188.8 232.629 1235.79 199.72 1277.14C189.729 1289.68 179.879 1303.34 172.327 1317.23C172.327 1321.37 186.343 1331.95 190.297 1334.83C204.479 1345.18 220.72 1352.39 235.494 1361.79L240.75 1361.2L240.773 1361.18ZM978.934 1175.26C977.277 1174.31 973.915 1174.93 972.044 1175.52C969.251 1176.39 948.511 1187.4 945.693 1189.34C944.557 1190.12 943.373 1190.85 942.663 1192.08C959.757 1223.22 980.118 1252.85 997.141 1283.99C1005.45 1299.16 1015.54 1318.82 1022 1334.74C1023.61 1338.71 1027.47 1354.78 1029.17 1356.5C1030.24 1357.61 1032.16 1357.82 1033.62 1357.47C1037.74 1356.45 1047.07 1351.47 1051.62 1349.39C1068.55 1341.62 1084.79 1332.19 1101.12 1323.26C1105.86 1319.62 1101.93 1315.3 1099.63 1311.61C1086.68 1290.6 1065.59 1261.17 1050.15 1241.74C1030.67 1217.22 1011.61 1201.88 986.913 1183.27C984.948 1181.8 979.763 1175.8 978.934 1175.33V1175.26ZM487.119 1209.21C451.937 1202.62 419.17 1188.25 385.692 1176.32C384.698 1175.94 383.964 1176.3 383.088 1176.7C381.502 1177.41 368.243 1191.3 365.876 1193.85C322.597 1240.23 279.696 1301.78 254.458 1360.09C253.345 1362.67 251.143 1365.93 252.28 1368.55C253.416 1371.17 267.882 1377.2 271.599 1378.88C303.585 1393.38 342.863 1406.54 376.885 1415.47C380.531 1416.44 397.933 1421.24 399.661 1420.03C401.886 1418.47 413.085 1375.24 415.334 1368.34C430.581 1321.56 450.114 1276.22 473.932 1233.21C475.755 1229.93 488.326 1210.89 487.143 1209.23L487.119 1209.21ZM1018.09 1363.71C1019.06 1362.22 1015.13 1348.61 1014.09 1346.13C1012.32 1341.92 1008.15 1337.43 1005.95 1332.99C999.177 1319.31 993.045 1305.16 985.729 1291.79C968.138 1259.7 947.493 1228.7 929.499 1196.76L825.539 1219.91C824.924 1220.64 825.373 1224.71 825.681 1226.03C831.671 1251.01 847.179 1277.56 849.902 1304.57L867.54 1411.17L871.849 1412C922.065 1400.54 970.719 1383.6 1018.07 1363.71H1018.09ZM634.808 1441.61L641.555 1233.9C639.898 1231.51 607.747 1230.97 602.467 1230.43C576.755 1227.8 550.309 1223.05 524.929 1218.09C517.163 1216.58 509.043 1213.63 501.324 1213.27C497.726 1215.21 478.17 1252.42 474.831 1258.94C448.48 1310.4 426.675 1366.31 414.293 1422.92C415.121 1424.33 416.494 1424.74 417.939 1425.26C423.976 1427.45 438.371 1429.7 445.402 1430.9C495.855 1439.53 548.96 1442.6 600.028 1443.05C611.724 1443.14 623.159 1442.39 634.808 1441.65V1441.61ZM649.155 1441.77C718.028 1441.42 786.451 1430.19 853.263 1414.67C855.536 1410.06 852.316 1405.86 851.725 1401.91C844.432 1354.21 839.413 1306.41 824.261 1260.48C822.485 1255.12 811.807 1224.05 808.919 1222.77L753.826 1229.22C724.16 1233.69 689.238 1229.48 660.378 1232.74C658.555 1232.95 655.429 1233.47 654.482 1235.1C652.967 1237.68 654.104 1254.6 653.891 1259.3C652.659 1288.34 651.144 1317.49 650.339 1346.67C650.268 1348.96 648.99 1351.33 649.108 1353.71L649.155 1441.77ZM164.987 1329.73C162.644 1330.35 147.657 1359.95 145.431 1364.63C128.195 1400.52 111.386 1447.25 104.188 1486.38C102.507 1495.55 100.4 1498.08 108.213 1504.15C117.376 1511.28 132.86 1520.31 143.301 1525.81C158.287 1533.73 174.363 1539.45 189.658 1546.7C190.77 1546.63 192.025 1543.68 192.309 1542.47C195.861 1528.06 196.097 1508.8 198.796 1493.47C200.785 1482.27 203.674 1469.65 206.373 1458.52C213.239 1430.05 222.922 1402.27 233.623 1375.07L165.011 1329.76L164.987 1329.73ZM1066.79 1539.71C1068.07 1540.79 1077.02 1537.06 1079.18 1536.23C1100.18 1528.34 1132.14 1514.59 1150.63 1502.47C1153.54 1500.56 1162.07 1494.72 1162.56 1491.88C1163.39 1487.21 1156.45 1459.28 1154.92 1452.33C1147.67 1419.35 1139.12 1386.86 1124.54 1356.34C1122.72 1352.51 1114.88 1335.26 1112.04 1334.48C1110.1 1333.94 1108.96 1334.65 1107.28 1335.21C1098.95 1338.1 1082.92 1349.01 1073.71 1353.64C1061.78 1359.64 1049.53 1365.1 1037.25 1370.37C1034.05 1372.14 1034.64 1375.21 1035.09 1378.26C1038.6 1402.79 1050.62 1432.25 1055.76 1458C1060.9 1483.76 1063.57 1512.35 1066.82 1539.66L1066.79 1539.71ZM1021.2 1376.87C985.918 1392.37 949.41 1405.29 912.311 1415.73C900.496 1419.07 885.155 1421.1 874.122 1424.83C865.93 1427.6 871.896 1436.24 872.63 1442.48C874.927 1461.97 876.489 1481.73 877.484 1501.38C883.616 1530.11 877.626 1564.14 880.964 1592.37C881.864 1599.96 889.842 1595.94 895.24 1594.69C940.153 1584.36 996.336 1567.14 1039.52 1550.95C1042.62 1549.79 1051.1 1546.94 1052.45 1544.93L1053.58 1541.57C1050.67 1490.07 1039.66 1439.36 1025.95 1389.79C1025.34 1387.57 1022.73 1376.96 1021.22 1376.84L1021.2 1376.87ZM247.758 1380.51C243.733 1381.19 237.909 1399.03 236.299 1403.35C221.407 1443.69 206.775 1503.51 204.384 1546.3C204.289 1548.09 204.052 1549.91 204.999 1551.59C205.875 1553.06 226.852 1560.29 230.474 1561.56C271.528 1575.93 331.996 1597.81 374.281 1602.27C376.08 1602.46 377.879 1602.67 379.56 1601.82C380.768 1600.97 380.555 1599.53 380.72 1598.25C382.33 1585.14 380.862 1567.33 381.857 1553.34C383.443 1531.01 386.284 1506.08 389.102 1483.83C391.067 1468.3 394.452 1452.85 396.844 1437.38L394.002 1432.56C343.502 1420.65 294.209 1403.47 247.758 1380.48V1380.51ZM850.044 1430.26C832.973 1431.3 810.15 1438.42 792.535 1441.42C752.429 1448.27 712.914 1452.9 672.287 1454.79C667.457 1455.03 652.446 1453.54 649.724 1455.9C647.001 1458.26 649.44 1461.9 649.203 1464.71C645.107 1512.84 643.615 1579.87 649.108 1627.76C649.25 1629.04 649.084 1630.48 650.268 1631.31C667.504 1633.2 684.693 1629.8 701.81 1628.28C745.302 1624.46 789.765 1619.9 832.311 1609.78C841.568 1607.59 856.081 1604.78 864.462 1601.73C872.843 1598.68 868.084 1591.31 867.942 1585.24C866.877 1539.97 864.557 1496.49 858.661 1451.65C857.525 1443.02 860.816 1429.58 850.02 1430.24L850.044 1430.26ZM413.298 1437.33C410.291 1437.9 408.989 1443.83 408.374 1446.45C399.756 1482.84 398.098 1525.44 395.991 1562.79C395.589 1570.04 390.854 1601.37 394.784 1605.34C396.015 1606.57 407.119 1608.58 409.936 1609.1C457.951 1618.08 506.438 1624.39 555.068 1628.36C578.46 1630.27 609.001 1634.71 632.014 1631.95C633.293 1631.8 634.737 1631.99 635.589 1630.79L634.453 1457.06C633.411 1456.11 632.156 1456.09 630.854 1455.95C611.819 1453.61 585.799 1456.66 565.699 1456.04C535.062 1455.12 504.094 1451.86 473.576 1448.81L413.275 1437.38L413.298 1437.33ZM1053.73 1735.74C1095.68 1718.59 1134.25 1693.85 1168.96 1664.81C1177.27 1622.99 1180.34 1575.83 1172.91 1533.54C1172.25 1529.74 1169.33 1516.46 1168.15 1513.5C1167.39 1511.59 1165.78 1510.43 1164.31 1509.13C1135.08 1529.78 1099.49 1540.82 1067.32 1556.27C1067.48 1580.42 1068.66 1604.75 1067.98 1628.95C1067.39 1650.14 1066.3 1672.51 1062.89 1693.52C1060.59 1707.67 1055.88 1721.54 1053.73 1735.72V1735.74ZM199.649 1730.99L190.226 1652.5C188.639 1622.31 189.729 1592.35 189.634 1562.2C175.121 1554.07 158.998 1548.28 144.224 1540.23C129.308 1532.1 116.05 1521.56 100.945 1513.81C99.6426 1514.59 99.4532 1515.42 99.1691 1516.81C96.9909 1527.7 97.346 1537.79 96.7541 1548.64C94.4102 1591.64 95.0968 1634.85 101.229 1677.59C102.01 1679.13 102.602 1680.78 103.928 1681.99C127.248 1703.35 168.113 1715.09 195.316 1731.37L199.672 1731.02L199.649 1730.99ZM1036.89 1744.91C1040.49 1731.06 1044.8 1717.03 1047.48 1702.95C1052.12 1678.54 1054.15 1650.3 1054.96 1625.4C1055.48 1609.03 1056.85 1581.67 1054.96 1566.26C1054.58 1563.12 1053.54 1561.42 1050.08 1561.61L882.101 1613.47L879.804 1722.16L871.541 1795.92C873.246 1796.3 874.43 1796.91 876.3 1796.63C885.699 1795.23 898.887 1788.97 908.428 1786.14C931.133 1779.38 953.151 1772.01 975.643 1764.68C996.004 1758.07 1017.27 1753.77 1036.87 1744.91H1036.89ZM216.553 1741.32C263.81 1764.21 313.884 1782.38 364.739 1795.9C373.286 1798.16 389.031 1803.13 396.938 1803.98C400.395 1804.35 402.029 1804.28 401.863 1800.27C401.555 1792.42 397.696 1780.82 396.346 1772.62C389.788 1732.98 385.266 1692.5 381.833 1652.53C380.886 1641.35 381.833 1629.04 379.584 1618.17C377.808 1615.93 332.162 1607.42 324.798 1605.55C290.563 1596.86 255.097 1584.15 221.501 1572.88C217.832 1571.65 205.781 1565.51 203.129 1567.42C201.945 1568.37 202.135 1569.69 201.969 1570.99C200.217 1585.28 201.401 1611.41 201.969 1626.58C202.987 1654.23 206.231 1686.38 210.445 1713.74C211.179 1718.52 214.446 1739.28 216.553 1741.29V1741.32ZM867.871 1616.64C865.433 1615.1 818.697 1626.68 811.523 1628C758.348 1637.83 704.438 1642.84 650.529 1646.17L655.051 1826.07L658.176 1827.46C715.802 1826.16 772.908 1819.26 829.233 1807.43C833.636 1806.5 855.323 1802.13 857.075 1800.38C859.751 1796.04 857.951 1790.67 858.567 1785.92C864.344 1739.92 866.64 1694.11 867.966 1647.73C868.108 1642.86 871.304 1618.81 867.871 1616.64ZM640.727 1826.47L636.228 1646.52C556.394 1645.32 476.938 1635.92 398.738 1620.42C397.246 1620.32 394.949 1621.2 394.216 1622.4C392.416 1625.33 398.88 1664.43 397.222 1671.38C403.354 1713.39 405.083 1758.42 415.5 1799.53C417.441 1807.24 417.939 1808.44 425.775 1810.52C482.36 1825.64 560.845 1825.17 620.224 1826.59C626.687 1826.75 634.003 1829.82 640.703 1826.47H640.727ZM1163.27 1683.9L1113.22 1718.99L1049.11 1752.99C1032.35 1805.49 1017.93 1858.91 996.951 1909.9C993.992 1917.06 989.612 1924.71 986.889 1931.73C986.345 1933.17 984.285 1938.44 986.889 1938.79C1018.38 1926.03 1050.96 1914.95 1078.42 1894.4C1099.16 1878.9 1105.74 1851.37 1115.57 1828.76C1135.83 1782.14 1157.43 1736.33 1166 1685.65L1163.25 1683.88L1163.27 1683.9ZM202.892 1750.22C178.127 1736.26 151.232 1726.34 126.301 1712.73C123.602 1711.26 107.361 1700.32 106.224 1701.48C113.422 1755.07 132.978 1808.54 159.234 1855.74C173.582 1881.52 177.914 1888.51 204.36 1902.78C216.624 1909.4 235.423 1919.3 248.16 1924C249.486 1924.5 255.926 1926.29 256.423 1925.77C256.754 1924.05 256.257 1922.73 255.736 1921.14C250.575 1905.19 241.531 1888.02 235.778 1871.41C226.947 1845.99 219.702 1819.71 213.215 1793.58C211.558 1786.85 205.426 1752.66 202.892 1750.18V1750.22ZM449.262 1978.91L404.988 1819.5C342.887 1804.64 281.519 1786.33 223.419 1759.82C222.188 1759.2 221.123 1759.3 220.365 1760.5C219.11 1762.46 224.177 1782.5 225.124 1786.52C237.317 1837.29 255.973 1887.29 276.902 1934.94C322.691 1952.21 369.83 1966.89 418.27 1975.08C422.721 1975.84 448.007 1980.68 449.285 1978.91H449.262ZM965.865 1945.57C994.3 1887.19 1013.52 1825.12 1031.97 1762.98L1030.55 1760.6L869.955 1811.58C865.243 1853.69 856.838 1895.3 847.345 1936.5C844.48 1948.93 838.395 1964.64 836.572 1976.57C836.288 1978.37 836.762 1979.62 837.33 1981.25C881.248 1974.02 924.551 1961.69 965.865 1945.57ZM655.24 1840.98L664.474 1993.77L719.591 1994.34C743.029 1992.14 766.871 1992.17 790.357 1989.43C797.176 1988.62 810.292 1987.39 816.258 1985.76C817.987 1985.29 819.478 1984.44 820.757 1983.16C825.871 1964.24 831.316 1945.22 835.743 1926.1C842.87 1895.51 850.044 1863.14 853.642 1831.81C853.997 1828.74 855.82 1816.73 853.855 1815.34C851.417 1813.59 818.555 1821.65 812.636 1822.76C781.266 1828.57 746.51 1834.81 714.784 1837.27C706.995 1837.88 656.921 1838.26 655.216 1841L655.24 1840.98ZM422.058 1823.09L422.342 1829.3C437.329 1879.98 446.042 1932.79 465.858 1981.87C467.066 1982.9 468.486 1983.33 470.049 1983.59C507.835 1989.78 547.729 1991.62 585.941 1993.06C603.627 1993.73 627.824 1996.44 645.083 1994.34C646.385 1994.17 647.735 1994.39 648.658 1993.18C649.7 1991.67 649.321 1972.56 649.226 1968.85C648.327 1934.71 644.041 1900.42 642.029 1866.23C641.745 1861.51 643.284 1843.41 640.916 1841.38C639.78 1840.41 636.086 1839.79 634.405 1839.63C618.922 1838.05 601.473 1839.09 585.87 1838.5C535.63 1836.56 481.745 1835 432.452 1825.15C429.303 1824.51 426.201 1821.86 422.082 1823.09H422.058ZM319.14 2034.44C319.803 2032 318.311 2031.22 317.412 2029.66C301.075 2001.55 278.962 1975.58 266.462 1944.75L198.489 1912.85L199.601 1918.21C227.894 1949.73 252.753 1984.63 285.449 2011.97C292.552 2017.92 305.455 2028.48 313.292 2032.59C315.21 2033.61 316.678 2034.93 319.116 2034.44H319.14ZM1029.6 1967.88C1038.81 1957.79 1051.33 1944.98 1058.93 1933.97C1060.47 1931.73 1067.08 1921.99 1065.54 1919.91C1036.94 1934.52 1006.78 1945.46 976.874 1957.15L972.826 1962.54L930.683 2047.97L933.477 2049.63C948.463 2039.63 964.16 2030.32 978.247 2019.01C995.625 2005.04 1014.38 1984.54 1029.6 1967.85V1967.88ZM514.322 2115.88C514.512 2114.18 514.417 2112.78 513.683 2111.2C510.889 2105.08 503.337 2096.15 499.691 2089.75C482.313 2059.17 469.102 2026.24 454.636 1994.22C448.504 1990.94 440.904 1991.72 434.606 1990.61C400.513 1984.53 368.622 1977.94 335.429 1967.97C319.211 1963.11 303.159 1957.36 287.201 1951.79C285.544 1953.63 290.303 1962.28 291.487 1964.62C297.477 1976.5 306.971 1990.65 314.381 2002C322.857 2014.94 343.408 2046.96 354.346 2055.7C363.248 2062.84 407.285 2083.58 419.501 2088.35C440.288 2096.48 467.776 2104.63 489.487 2110.59C492.967 2111.53 513.139 2117.08 514.346 2115.88H514.322ZM955.542 1965.96L833.044 1996.58C828.546 1999.37 826.415 2015.56 824.616 2021.23C822.201 2028.84 819.644 2036.7 816.85 2044.17C809.44 2063.97 794.785 2085.99 789.055 2104.96C788.558 2106.62 788.7 2108.32 788.771 2109.97C810.908 2103.24 833.778 2097.02 855.323 2088.45C864.296 2084.88 894.98 2071.88 901.041 2066.78C905.019 2063.45 913.755 2049.7 916.714 2044.64C931.062 2020.19 943.018 1991.46 955.542 1965.94V1965.96ZM532.505 2114.27C534.518 2116.61 536.885 2118.88 538.779 2121.57C575.95 2128.71 613.76 2133.48 651.618 2135.44C653.441 2134.14 652.872 2107.82 652.778 2103.43C652.304 2081.57 651.168 2059.24 650.315 2037.41C650.079 2031.62 651.783 2011.54 648.611 2008.4C647.427 2007.24 646.551 2007.36 645.107 2007.17C632.44 2005.68 615.749 2007.71 602.396 2007.29C564.302 2006.06 528.907 2001.43 491.239 1997.79C484.822 1997.18 478.17 1996.94 471.73 1996.61C470.735 1997.53 480.277 2018.84 481.508 2021.68C493.961 2050.22 512.452 2090.83 532.505 2114.22V2114.27ZM812.068 1999.21C809.606 1999.89 807.143 2000.96 804.586 2001.24C772.6 2004.97 741.064 2006.56 708.936 2007.31C702.071 2007.48 667.836 2006.08 665.018 2008.33C661.301 2011.26 664.497 2018.09 664.592 2021.96C665.302 2052.13 665.208 2080.23 666.96 2110.52C667.267 2115.83 665.468 2131.66 668.664 2134.8C670.582 2136.72 678.561 2136.13 681.686 2135.94C705.314 2134.54 731.973 2128.66 754.417 2121.17C766.137 2117.27 767.865 2116.33 773.997 2105.29C782.97 2089.09 795.921 2061.39 802.574 2044.1C805.723 2035.95 813.346 2014.16 814.483 2006.39C814.743 2004.59 815.169 2002.75 814.601 2000.96L812.068 1999.21Z" stroke="#416A41" stroke-width="2.67069" stroke-miterlimit="10"/>
<path d="M133.933 1957.24C139.449 1963.62 159.716 1977.68 158.106 1986.35C156.733 1993.75 137.153 2003.91 131.021 2010.19C114.708 2026.97 97.5909 2075.92 92.3112 2099.06C91.2931 2103.52 92.9978 2113.68 87.3156 2116.49C75.5488 2122.33 74.3177 2097.73 72.7787 2092.01C63.782 2058.51 48.961 2023.05 17.1172 2005.89C11.5061 2002.87 -7.05568 1998.85 5.75286 1989.05C14.4182 1982.41 20.858 1979.9 28.7656 1970.69C43.4919 1953.54 59.8518 1906.28 65.6997 1883.58C69.7009 1868.05 70.2454 1846.69 74.8622 1832.52C76.2827 1828.12 79.6684 1824.22 84.6166 1826.33C91.6956 1829.33 91.956 1853.31 93.5897 1861.13C98.2064 1883.27 119.633 1940.66 133.933 1957.24ZM128.18 1970.03C118.875 1959.99 113.24 1950.79 107.203 1938.44C97.3068 1918.17 90.6776 1896.29 83.1724 1875.07C79.0291 1879.65 79.1001 1887.12 77.2298 1892.74C72.9208 1905.78 67.4044 1920.48 62.172 1933.19C52.5834 1956.44 42.4739 1976.57 22.2785 1992.52C56.0164 2010.26 70.5532 2042.92 83.1724 2076.92C87.6944 2072.9 87.3393 2066.43 89.0913 2061.58C96.5728 2041.05 108.671 2012.93 124.557 1997.81C127.02 1995.45 139.994 1986.52 140.444 1985.24C142.006 1980.59 131.352 1973.43 128.204 1970.03H128.18Z" stroke="#416A41" stroke-width="2.67069" stroke-miterlimit="10"/>
<path d="M1052.9 1112C1049.89 1109.85 1047.76 1104.63 1050.08 1101.09C1051.1 1099.55 1065.54 1092.77 1069.35 1089.91C1094.74 1070.73 1113.18 1028.58 1121.02 998.334C1122.48 992.64 1126.27 965.846 1129.66 963.885L1136.52 964.216C1140.26 966.39 1138.51 979.597 1139.03 984.134C1142.68 1016.74 1156.51 1066.12 1179.66 1089.98C1184.49 1094.97 1197.7 1102.22 1198.74 1108.79C1199.78 1115.36 1183.35 1124.57 1178.55 1128.94C1164.74 1141.49 1133.63 1186.34 1128.24 1203.87C1125.68 1212.11 1122.84 1242.14 1112.28 1242.17C1100.58 1238.6 1104.49 1221.66 1103.26 1212.3C1099.94 1186.85 1085.03 1133.69 1064.41 1117.67C1060.43 1114.6 1055.58 1113.92 1052.92 1112.03L1052.9 1112ZM1127.19 1013.34C1120.57 1037.96 1107.85 1065.67 1090.43 1084.67C1083.8 1091.9 1076.17 1096.88 1069.14 1103.52C1096.08 1126.18 1106.62 1160.7 1112.87 1194.16L1115.85 1196.16C1133 1165.66 1152.01 1131.99 1180.23 1110.49C1180.87 1107.87 1169.86 1099.34 1167.35 1096.41C1152.13 1078.74 1143.89 1061.23 1137.4 1038.93C1134.96 1030.49 1133.09 1021.98 1131.69 1013.34H1127.19Z" stroke="#416A41" stroke-width="2.67069" stroke-miterlimit="10"/>
<path d="M219.446 2031.06C231.307 2027.7 227.614 2054.92 228.087 2060.99C229.697 2081.31 233.39 2100.54 244.613 2117.7C247.691 2122.4 257.942 2132.94 257.658 2137.64C257.256 2143.9 247.193 2147.75 242.908 2151.32C229.981 2162.09 218.759 2174.45 214.213 2191.15C211.727 2200.27 214.095 2222.86 199.747 2216.79C193.237 2195.74 193.497 2168.8 173.704 2154.2C169.206 2150.89 158.646 2148.91 159.451 2141.28C159.759 2138.42 171.952 2128.07 174.817 2124.67C191.556 2104.92 204.814 2075.62 212.13 2050.93C213.527 2046.25 214.213 2032.47 219.469 2031.01L219.446 2031.06ZM216.226 2079.3C214.403 2077.6 214.213 2079.8 213.621 2080.82C208.176 2090.29 204.459 2100.71 198.279 2110.35C192.1 2119.99 183.435 2128.94 177.161 2138.96L177.35 2140.52C189.922 2148.25 199.44 2160.58 203.228 2174.9C205.95 2176.91 211.325 2164.83 212.887 2162.71C217.267 2156.73 222.665 2151.06 228.04 2145.96C230.597 2143.52 239.499 2138.51 239.499 2135.35C231.946 2123.68 224.417 2111.6 220.345 2098.21C219.422 2095.18 216.936 2079.94 216.226 2079.28V2079.3Z" stroke="#416A41" stroke-width="2.67069" stroke-miterlimit="10"/>
<path d="M1229.29 1235.88C1233.69 1240.75 1246.9 1248.69 1248.96 1252.21C1254.38 1261.47 1236.63 1269.91 1231.13 1275.86C1219.84 1288.1 1215.65 1307.03 1213.42 1323.14C1212.55 1329.54 1215.08 1349.56 1203.62 1347.1C1196.12 1345.49 1196.61 1333.42 1195.34 1328.17C1191.97 1314.28 1184.3 1289.97 1168.51 1285.29C1161.86 1283.33 1151.51 1288.08 1148.93 1279.93C1146.61 1272.55 1162.45 1262.7 1167.3 1257.03C1178.12 1244.41 1185.77 1219.72 1190.6 1203.54C1192.68 1196.59 1193.77 1184.87 1195.97 1179.39C1199.6 1170.34 1206.72 1176.91 1208.93 1183.53C1215.72 1203.82 1212.86 1217.72 1229.26 1235.86L1229.29 1235.88ZM1218.66 1244.11C1210.84 1234.87 1204.64 1224.31 1201.02 1212.73C1192.57 1227.85 1189.87 1245.31 1179.64 1259.87C1176.58 1264.21 1170.29 1266.25 1172.16 1272.81C1184.85 1276.5 1195.41 1289.28 1200.45 1301.26C1200.73 1301.47 1204.02 1299.56 1204.52 1298.85C1206.06 1296.61 1208.81 1285.69 1210.87 1281.58C1215.89 1271.59 1223.25 1264.8 1230.97 1257.01C1230.97 1255.07 1220.62 1246.38 1218.68 1244.08L1218.66 1244.11Z" stroke="#416A41" stroke-width="2.67069" stroke-miterlimit="10"/>
<path d="M60.9095 2135.04C62.2354 2134.85 63.7743 2135.77 64.7923 2136.58C68.8172 2139.79 72.3922 2163.46 74.6178 2170.46C77.7666 2180.38 83.3541 2193.04 90.2437 2200.91C94.6 2205.87 105.088 2211.19 105.112 2218.02C105.112 2226.34 89.202 2228.27 82.6675 2233.45C74.4994 2239.92 66.6627 2263.38 63.94 2273.78C62.6379 2278.76 63.5849 2296.27 52.3389 2289.51C47.4144 2286.56 46.1122 2264.78 43.9341 2257.78C39.9092 2244.86 31.3149 2233.59 20.9923 2225.18C18.0092 2222.74 9.91209 2220.41 9.72268 2215.68C9.46225 2209.7 19.6428 2205.07 23.4546 2201.5C35.3161 2190.42 45.8518 2173.77 51.2262 2158.38C53.2386 2152.62 53.8305 2144.02 55.6062 2139.15C56.056 2137.95 59.8678 2135.21 60.9332 2135.04H60.9095ZM71.1611 2224.94C74.7598 2221.3 80.9392 2218.96 84.9167 2215.66C73.2682 2203.3 65.1712 2188.15 61.8802 2171.38L58.4236 2170.29C50.658 2186.22 41.6375 2200.13 28.4265 2212.09C34.8426 2219.46 42.0637 2225.53 47.5801 2234.06C51.1551 2239.57 52.6704 2245.88 57.1451 2250.46C61.3357 2242.54 64.745 2231.44 71.1611 2224.94Z" stroke="#416A41" stroke-width="2.67069" stroke-miterlimit="10"/>
</svg>
